<?xml version="1.0" encoding="UTF-8"?>
<svg version="1.1" xmlns="http://www.w3.org/2000/svg" width="500" height="500">
<path d="M0 0 C0.70898438 0.67933594 1.41796875 1.35867187 2.1484375 2.05859375 C5.67295845 4.19887855 8.66881643 4.14815483 12.625 3.5625 C16.4462554 2.59252163 20.15101067 1.3519562 23.875 0.0625 C25.815943 -0.59895294 27.75859522 -1.25541695 29.703125 -1.90625 C30.55293945 -2.19951172 31.40275391 -2.49277344 32.27832031 -2.79492188 C34.625 -3.4375 34.625 -3.4375 38.625 -3.4375 C39.375 -1.1875 39.375 -1.1875 39.625 1.5625 C37.00116255 5.49825618 33.07724234 6.7931348 28.875 8.5625 C24.35208208 10.57268574 19.94583861 13.05734271 17.625 17.5625 C17.8255101 21.47244687 19.08010002 24.59345003 21.625 27.5625 C26.94979091 28.05432182 30.82178479 27.0121236 35.75 25.0625 C39.90784632 23.42483624 43.13338893 22.22351049 47.625 22.5625 C46.11229682 27.06931223 42.45481886 29.04841461 38.6875 31.5625 C31.63173709 35.96439372 31.63173709 35.96439372 28.11328125 43.140625 C28.02626953 44.46320313 28.02626953 44.46320313 27.9375 45.8125 C27.83888672 47.15054688 27.83888672 47.15054688 27.73828125 48.515625 C27.68220703 49.52882812 27.68220703 49.52882812 27.625 50.5625 C34.13611706 50.97450289 38.43851329 49.78164666 44.3125 47.0625 C53.0935529 43.06198513 53.0935529 43.06198513 57.625 43.5625 C56.62698407 46.82072848 55.071168 48.08297545 52.21875 49.703125 C50.86032921 50.41808331 49.49544669 51.1208727 48.125 51.8125 C47.43535156 52.17601562 46.74570312 52.53953125 46.03515625 52.9140625 C40.92745536 55.5625 40.92745536 55.5625 38.625 55.5625 C38.625 56.2225 38.625 56.8825 38.625 57.5625 C37.965 57.5625 37.305 57.5625 36.625 57.5625 C36.625 58.5525 36.625 59.5425 36.625 60.5625 C40.12931618 59.09068721 43.47757012 57.6434419 46.8125 55.8125 C49.625 54.5625 49.625 54.5625 52 54.875 C52.53625 55.101875 53.0725 55.32875 53.625 55.5625 C53.625 56.8825 53.625 58.2025 53.625 59.5625 C52.965 59.5625 52.305 59.5625 51.625 59.5625 C51.625 60.2225 51.625 60.8825 51.625 61.5625 C50.965 61.5625 50.305 61.5625 49.625 61.5625 C49.34398437 62.12710938 49.06296875 62.69171875 48.7734375 63.2734375 C48.01615127 64.78285836 47.25068747 66.28820798 46.4765625 67.7890625 C43.50765793 73.59450009 40.94540895 79.46980611 38.625 85.5625 C49.34827119 80.88050835 58.28821387 73.23607227 63.625 62.5625 C64.285 62.5625 64.945 62.5625 65.625 62.5625 C65.71265625 62.02753906 65.8003125 61.49257812 65.890625 60.94140625 C66.87687382 57.74658959 68.56101604 55.30621955 70.375 52.5 C74.03008398 46.74537925 76.99850166 40.86357053 79.625 34.5625 C80.285 35.2225 80.945 35.8825 81.625 36.5625 C81.2298786 39.07412439 80.72796088 41.37029833 80.0625 43.8125 C79.87123535 44.53268311 79.6799707 45.25286621 79.48291016 45.99487305 C75.36817448 61.11827299 69.35090015 75.47364977 60.625 88.5625 C60.955 89.5525 61.285 90.5425 61.625 91.5625 C62.16769531 91.2015625 62.71039063 90.840625 63.26953125 90.46875 C64.34267578 89.77265625 64.34267578 89.77265625 65.4375 89.0625 C66.14519531 88.5984375 66.85289062 88.134375 67.58203125 87.65625 C69.625 86.5625 69.625 86.5625 72.625 86.5625 C72.24903791 89.34461944 71.95181541 91.1504284 70.1875 93.375 C68.625 94.5625 68.625 94.5625 66.625 94.5625 C66.625 95.2225 66.625 95.8825 66.625 96.5625 C65.965 96.5625 65.305 96.5625 64.625 96.5625 C64.625 97.2225 64.625 97.8825 64.625 98.5625 C63.965 98.5625 63.305 98.5625 62.625 98.5625 C62.625 99.2225 62.625 99.8825 62.625 100.5625 C61.965 100.5625 61.305 100.5625 60.625 100.5625 C60.625 101.2225 60.625 101.8825 60.625 102.5625 C58.98046875 104.1484375 58.98046875 104.1484375 56.8125 105.9375 C54.56249143 107.79816282 52.72149715 109.43122703 50.98828125 111.7890625 C50.53839844 112.37429687 50.08851563 112.95953125 49.625 113.5625 C48.965 113.5625 48.305 113.5625 47.625 113.5625 C47.295 115.8725 46.965 118.1825 46.625 120.5625 C52.35933906 118.68580722 56.65841946 116.35036806 61.44921875 112.671875 C64.23867831 111.24960119 65.688758 111.67802781 68.625 112.5625 C68.625 114.2125 68.625 115.8625 68.625 117.5625 C67.965 117.5625 67.305 117.5625 66.625 117.5625 C66.625 118.2225 66.625 118.8825 66.625 119.5625 C64.71858686 121.07793175 62.82746024 122.45466536 60.8125 123.8125 C60.22227051 124.21509033 59.63204102 124.61768066 59.02392578 125.0324707 C53.746423 128.58035385 48.27008389 131.63784004 42.625 134.5625 C33.55447485 139.23611726 33.55447485 139.23611726 25.625 145.5625 C25.625 146.2225 25.625 146.8825 25.625 147.5625 C30.2661986 147.12735554 30.2661986 147.12735554 34.5625 145.5 C37.86346042 143.99956344 41.02911117 144.44263704 44.625 144.5625 C45.83968687 148.20656062 46.54634277 151.80837199 45.625 155.5625 C41.78021268 160.57809682 37.89415178 161.69326256 32.0625 163.1875 C21.69136723 166.11274347 12.81574036 171.01565131 3.61352539 176.53442383 C1.62058769 177.56478118 -0.18406628 178.11437538 -2.375 178.5625 C-2.375 179.2225 -2.375 179.8825 -2.375 180.5625 C-3.15810547 180.98208984 -3.15810547 180.98208984 -3.95703125 181.41015625 C-15.06850982 187.46211743 -26.25036836 194.10802431 -35.0625 203.328125 C-36.375 204.5625 -36.375 204.5625 -38.375 204.5625 C-38.375 205.2225 -38.375 205.8825 -38.375 206.5625 C-39.035 206.5625 -39.695 206.5625 -40.375 206.5625 C-40.375 207.2225 -40.375 207.8825 -40.375 208.5625 C-42.25 210.6875 -42.25 210.6875 -44.375 212.5625 C-45.035 212.5625 -45.695 212.5625 -46.375 212.5625 C-46.375 213.2225 -46.375 213.8825 -46.375 214.5625 C-47.035 214.5625 -47.695 214.5625 -48.375 214.5625 C-48.66375 215.160625 -48.9525 215.75875 -49.25 216.375 C-50.375 218.5625 -50.375 218.5625 -52.375 221.5625 C-53.035 221.5625 -53.695 221.5625 -54.375 221.5625 C-54.61863281 222.09101563 -54.86226563 222.61953125 -55.11328125 223.1640625 C-56.39958695 225.60923804 -57.86657378 227.88252377 -59.39599609 230.18139648 C-65.80475113 239.82940297 -70.869426 249.89211367 -75.375 260.5625 C-76.035 260.5625 -76.695 260.5625 -77.375 260.5625 C-78.96576207 241.0756646 -66.69708857 219.93966221 -57.375 203.5625 C-56.80507324 202.55920654 -56.80507324 202.55920654 -56.22363281 201.53564453 C-50.14067546 190.98446914 -42.88387941 181.72087147 -34.9921875 172.46777344 C-32.72784349 169.80005896 -30.51986037 167.09005326 -28.3125 164.375 C-25.35350593 160.75354457 -22.37839884 157.14720185 -19.375 153.5625 C-25.66234958 157.36495958 -31.46807119 161.21810789 -36.81640625 166.27734375 C-38.375 167.5625 -38.375 167.5625 -40.375 167.5625 C-40.375 168.2225 -40.375 168.8825 -40.375 169.5625 C-44.84558824 173.5625 -44.84558824 173.5625 -47.375 173.5625 C-47.375 174.2225 -47.375 174.8825 -47.375 175.5625 C-48.94921875 177.1484375 -48.94921875 177.1484375 -51.0625 178.9375 C-52.15498047 179.86369141 -52.15498047 179.86369141 -53.26953125 180.80859375 C-54.31173828 181.67677734 -54.31173828 181.67677734 -55.375 182.5625 C-56.32375 183.366875 -57.2725 184.17125 -58.25 185 C-60.375 186.5625 -60.375 186.5625 -62.375 186.5625 C-62.375 187.2225 -62.375 187.8825 -62.375 188.5625 C-64.49625941 189.8504075 -65.80316762 190.61783862 -68.3125 190.375 C-70.8902717 189.35951418 -73.099296 188.14285 -75.375 186.5625 C-75.375 185.9025 -75.375 185.2425 -75.375 184.5625 C-76.035 184.5625 -76.695 184.5625 -77.375 184.5625 C-78.035 183.9025 -78.695 183.2425 -79.375 182.5625 C-79.39481934 183.48587158 -79.41463867 184.40924316 -79.43505859 185.3605957 C-79.51317739 188.78811174 -79.59986997 192.21518798 -79.69238281 195.64233398 C-79.73065347 197.12532212 -79.76550978 198.60840248 -79.796875 200.09155273 C-79.842568 202.22413072 -79.90055338 204.35607491 -79.9609375 206.48828125 C-80.00806885 208.41281128 -80.00806885 208.41281128 -80.05615234 210.3762207 C-80.375 213.5625 -80.375 213.5625 -82.375 216.5625 C-84.025 216.2325 -85.675 215.9025 -87.375 215.5625 C-87.36339844 214.94761719 -87.35179687 214.33273437 -87.33984375 213.69921875 C-87.33082031 212.89097656 -87.32179687 212.08273437 -87.3125 211.25 C-87.30089844 210.44949219 -87.28929687 209.64898437 -87.27734375 208.82421875 C-87.27842145 206.39388666 -87.27842145 206.39388666 -88.375 203.5625 C-88.50243118 201.44886296 -88.57683721 199.33185617 -88.62109375 197.21484375 C-88.65396484 195.97025391 -88.68683594 194.72566406 -88.72070312 193.44335938 C-88.78198988 190.81063684 -88.8392701 188.17781805 -88.89257812 185.54492188 C-88.92673828 184.30162109 -88.96089844 183.05832031 -88.99609375 181.77734375 C-89.0211499 180.63386475 -89.04620605 179.49038574 -89.07202148 178.31225586 C-89.10060565 175.41995425 -89.10060565 175.41995425 -91.375 173.5625 C-92.035 173.5625 -92.695 173.5625 -93.375 173.5625 C-93.37055878 174.34732758 -93.36611755 175.13215515 -93.36154175 175.94076538 C-93.32151083 183.32763958 -93.29103901 190.71446138 -93.27137566 198.10141563 C-93.26092679 201.89936312 -93.24674764 205.69722118 -93.22412109 209.49511719 C-93.20243179 213.15851346 -93.19043969 216.82182357 -93.18524551 220.48527908 C-93.18154269 221.88476544 -93.17431223 223.28424695 -93.16353989 224.68369675 C-93.14907775 226.63983331 -93.14818353 228.59605609 -93.14794922 230.55224609 C-93.143508 231.6669931 -93.13906677 232.78174011 -93.13449097 233.93026733 C-93.375 236.5625 -93.375 236.5625 -95.375 238.5625 C-97.875 238.875 -97.875 238.875 -100.375 238.5625 C-102.84313165 234.86030252 -102.61747195 233.03071249 -102.60205078 228.61254883 C-102.60234283 227.90985367 -102.60263489 227.20715851 -102.60293579 226.48316956 C-102.60154308 224.16183093 -102.58598487 221.84081377 -102.5703125 219.51953125 C-102.56658216 217.90956294 -102.56373528 216.29959236 -102.56173706 214.68962097 C-102.55410227 210.45303068 -102.53445513 206.2165776 -102.5123291 201.9800415 C-102.49186735 197.65663509 -102.48273464 193.3332065 -102.47265625 189.00976562 C-102.45120906 180.52728079 -102.41707501 172.04490747 -102.375 163.5625 C-103.035 163.5625 -103.695 163.5625 -104.375 163.5625 C-104.34019531 164.68269531 -104.30539063 165.80289063 -104.26953125 166.95703125 C-104.24139161 168.42967251 -104.21409163 169.90232998 -104.1875 171.375 C-104.16236328 172.11298828 -104.13722656 172.85097656 -104.11132812 173.61132812 C-104.03728321 179.06597021 -104.03728321 179.06597021 -105.75390625 181.58984375 C-107.375 182.5625 -107.375 182.5625 -109.5 182.3125 C-111.375 181.5625 -111.375 181.5625 -112.375 180.5625 C-112.54350261 178.50079873 -112.6514812 176.4341016 -112.734375 174.3671875 C-112.79882812 173.09359375 -112.86328125 171.82 -112.9296875 170.5078125 C-113.03031472 168.48061373 -113.12439406 166.45414321 -113.19824219 164.42578125 C-113.59710294 153.46876573 -113.59710294 153.46876573 -119.375 144.5625 C-122.49697478 145.8714572 -122.49697478 145.8714572 -124.375 148.5625 C-124.52878852 150.52024069 -124.62471463 152.48267352 -124.69140625 154.4453125 C-124.73330078 155.61191406 -124.77519531 156.77851563 -124.81835938 157.98046875 C-124.85767578 159.20378906 -124.89699219 160.42710937 -124.9375 161.6875 C-124.98068359 162.91855469 -125.02386719 164.14960938 -125.06835938 165.41796875 C-125.17468704 168.46602853 -125.27671781 171.5141719 -125.375 174.5625 C-127.03114657 174.94468767 -128.69957024 175.27645102 -130.375 175.5625 C-132.41387639 173.52362361 -131.60830298 169.31060338 -131.65625 166.50390625 C-131.67465942 165.68558823 -131.69306885 164.8672702 -131.71203613 164.02415466 C-131.7709613 161.39117858 -131.82359133 158.75813287 -131.875 156.125 C-131.94332397 152.68868719 -132.01556885 149.25250941 -132.09375 145.81640625 C-132.11203857 144.99322906 -132.13032715 144.17005188 -132.14916992 143.32192993 C-132.27755318 138.3263371 -132.56974495 133.40636891 -133.27148438 128.45288086 C-133.375 126.5625 -133.375 126.5625 -132.80664062 124.54125977 C-131.99564271 120.82342148 -134.47309742 117.63563072 -136.375 114.5625 C-140.1410965 108.76888807 -140.1410965 108.76888807 -145.375 104.5625 C-145.375 103.5725 -145.375 102.5825 -145.375 101.5625 C-143.395 101.0675 -143.395 101.0675 -141.375 100.5625 C-141.44460937 99.94503906 -141.51421875 99.32757813 -141.5859375 98.69140625 C-142.00276688 92.17100375 -140.79691308 88.71067232 -136.78515625 83.5703125 C-134.76712323 80.69699125 -134.25878316 78.71885757 -134.609375 75.23046875 C-135.53715966 70.76726223 -136.60127757 66.7536258 -138.51171875 62.58984375 C-142.18490931 53.96366319 -144.05093592 45.93172284 -143.375 36.5625 C-141.395 36.5625 -139.415 36.5625 -137.375 36.5625 C-137.17003906 37.11679688 -136.96507812 37.67109375 -136.75390625 38.2421875 C-136.48449219 38.96664062 -136.21507812 39.69109375 -135.9375 40.4375 C-135.67066406 41.15679687 -135.40382812 41.87609375 -135.12890625 42.6171875 C-134.39583146 44.59898845 -134.39583146 44.59898845 -133.375 46.5625 C-132.385 46.5625 -131.395 46.5625 -130.375 46.5625 C-130.07207031 45.65628906 -129.76914063 44.75007813 -129.45703125 43.81640625 C-127.00370605 36.68289144 -124.37523601 29.99692218 -120.375 23.5625 C-119.715 23.5625 -119.055 23.5625 -118.375 23.5625 C-118.08625 22.799375 -117.7975 22.03625 -117.5 21.25 C-116.375 18.5625 -116.375 18.5625 -114.375 15.5625 C-113.715 15.5625 -113.055 15.5625 -112.375 15.5625 C-112.106875 14.964375 -111.83875 14.36625 -111.5625 13.75 C-110.37582594 11.56402146 -109.27900887 10.14917406 -107.375 8.5625 C-106.715 8.5625 -106.055 8.5625 -105.375 8.5625 C-105.375 7.9025 -105.375 7.2425 -105.375 6.5625 C-101.57905566 3.30137943 -97.46635258 0.4400044 -93.375 -2.4375 C-92.17423828 -3.28634766 -92.17423828 -3.28634766 -90.94921875 -4.15234375 C-64.16834086 -21.58997926 -24.53392294 -21.19520866 0 0 Z " fill="#2A1F2D" transform="translate(284.375,127.4375)"/>
<path d="M0 0 C0.66 0.33 1.32 0.66 2 1 C0.7934375 2.36125 0.7934375 2.36125 -0.4375 3.75 C-2.46183957 6.15532483 -3.42161152 7.8767022 -4 11 C-4.66 11.33 -5.32 11.66 -6 12 C-5.505 13.485 -5.505 13.485 -5 15 C-5.99 15.33 -6.98 15.66 -8 16 C-8.33 16.66 -8.66 17.32 -9 18 C-8.01 17.67 -7.02 17.34 -6 17 C-4.33333333 17 -2.66666667 17 -1 17 C1.32142142 15.03261775 3.50300568 12.94113007 5.7109375 10.84765625 C7.92858642 9.05764271 9.22293759 8.39944048 12 8 C11.278125 8.66 10.55625 9.32 9.8125 10 C-1.1205782 21.11786262 -3.78445533 35.25803389 -3.66162109 50.29248047 C-3.31918984 59.49149534 -1.58678799 66.22095144 4.95703125 73.0390625 C7.00629065 74.92693159 7.00629065 74.92693159 10 77 C10 74.36 10 71.72 10 69 C14.83865049 73.52647949 15.10077079 76.6778209 15.375 83.1875 C15.59667314 87.5773636 15.91714018 91.58863644 17.625 95.6875 C19.05206892 99.12543876 19.08046093 99.69378954 18 103 C17.52949219 102.44570312 17.05898437 101.89140625 16.57421875 101.3203125 C15.64029297 100.23363281 15.64029297 100.23363281 14.6875 99.125 C14.07261719 98.40570313 13.45773438 97.68640625 12.82421875 96.9453125 C10.61741492 94.59201848 8.8149505 93.17156853 5.625 92.5 C1.5674526 93.27286617 0.39022469 95.72197757 -2 99 C-3.32 98.34 -4.64 97.68 -6 97 C-6.33 97.66 -6.66 98.32 -7 99 C-7.99 99 -8.98 99 -10 99 C-8.18653675 101.06676918 -8.18653675 101.06676918 -6.0546875 101.8125 C-3.2876139 103.41172124 -2.55238978 105.16134914 -1.125 108 C1.70895037 113.47270518 4.78482464 118.74398639 8 124 C8.33 121.36 8.66 118.72 9 116 C11.97569363 118.78809555 14.16048288 121.56414179 16.25 125.0625 C17.03117187 126.34833984 17.03117187 126.34833984 17.828125 127.66015625 C19 130 19 130 19 133 C19.66 133 20.32 133 21 133 C20.67 132.34 20.34 131.68 20 131 C19.92934383 128.95944995 19.91578024 126.91665743 19.9375 124.875 C19.94652344 123.77929688 19.95554688 122.68359375 19.96484375 121.5546875 C19.97644531 120.71164063 19.98804688 119.86859375 20 119 C22.95814719 121.61227152 24.71876108 124.66570307 26.6875 128.0625 C27.62142578 129.65771484 27.62142578 129.65771484 28.57421875 131.28515625 C30 134 30 134 30 136 C30.66 136 31.32 136 32 136 C32.03738281 135.43152344 32.07476562 134.86304688 32.11328125 134.27734375 C32.56978622 128.91564807 33.63489082 124.8330492 36 120 C36.66 120 37.32 120 38 120 C39.32 123.63 40.64 127.26 42 131 C42.48210937 130.07316406 42.96421875 129.14632812 43.4609375 128.19140625 C44.0986582 126.98161257 44.73669548 125.77198574 45.375 124.5625 C45.85066406 123.64500977 45.85066406 123.64500977 46.3359375 122.70898438 C48.7734375 118.11328125 48.7734375 118.11328125 51 117 C52.20272819 119.40545638 52.10071472 120.94996953 52.0625 123.625 C52.05347656 124.44226563 52.04445313 125.25953125 52.03515625 126.1015625 C52.02355469 126.72804688 52.01195312 127.35453125 52 128 C52.66 128 53.32 128 54 128 C54.07089844 127.30519531 54.14179688 126.61039062 54.21484375 125.89453125 C55.21816089 122.19573522 57.22197854 119.63734558 59.5625 116.6875 C59.98724609 116.13771484 60.41199219 115.58792969 60.84960938 115.02148438 C61.89181259 113.6748173 62.94483843 112.33653799 64 111 C66.10827055 114.16240582 66.33817465 115.50657469 66.625 119.1875 C66.73714844 120.53908203 66.73714844 120.53908203 66.8515625 121.91796875 C66.90054688 122.60503906 66.94953125 123.29210937 67 124 C71.27499123 117.91805372 74.82819865 111.72253472 78 105 C78.66 105 79.32 105 80 105 C80.495 109.95 80.495 109.95 81 115 C81.7734375 113.63875 81.7734375 113.63875 82.5625 112.25 C83.37464437 110.83312943 84.18721407 109.41650264 85 108 C85.59039062 106.96488281 86.18078125 105.92976563 86.7890625 104.86328125 C87.41554688 103.77402344 88.04203125 102.68476563 88.6875 101.5625 C89.59048828 99.98662109 89.59048828 99.98662109 90.51171875 98.37890625 C91.00285156 97.59386719 91.49398437 96.80882812 92 96 C92.33 96 92.66 96 93 96 C93.33 97.98 93.66 99.96 94 102 C94.99 101.67 95.98 101.34 97 101 C97.71949183 99.35544725 98.36971413 97.68076231 99 96 C99.75909976 94.68067902 100.53152502 93.36899086 101.3125 92.0625 C104.13644577 87.07906629 105.94217778 81.87046443 107.796875 76.46484375 C109.3778002 71.91198449 111.16281174 67.45441176 113 63 C114.30522427 67.35054568 113.57885246 71.1668436 112.8125 75.5625 C112.67231445 76.36953369 112.53212891 77.17656738 112.38769531 78.00805664 C109.6464484 92.97844392 102.79330523 106.95062161 91 117 C89.68 117 88.36 117 87 117 C86.89558594 117.69867188 86.79117188 118.39734375 86.68359375 119.1171875 C85.89811632 122.42965804 84.6142152 125.09744809 83.0625 128.125 C82.53785156 129.15882813 82.01320313 130.19265625 81.47265625 131.2578125 C80 134 80 134 78 137 C77.34 137 76.68 137 76 137 C75.67 133.7 75.34 130.4 75 127 C73.96241251 129.05412248 72.9454966 131.11869605 71.9375 133.1875 C71.36902344 134.33605469 70.80054688 135.48460937 70.21484375 136.66796875 C68.93598027 140.17559108 68.88955976 141.52383924 70 145 C70.33333333 146.66666667 70.66666667 148.33333333 71 150 C70.01 150.33 69.02 150.66 68 151 C67.40313489 152.81063881 67.40313489 152.81063881 67 155 C66.27571796 156.72858391 65.50138602 158.43675347 64.6875 160.125 C64.07455078 161.42824219 64.07455078 161.42824219 63.44921875 162.7578125 C61.85473646 165.22474736 60.70840587 165.97207624 58 167 C58 167.66 58 168.32 58 169 C56.42578125 170.5859375 56.42578125 170.5859375 54.3125 172.375 C53.22001953 173.30119141 53.22001953 173.30119141 52.10546875 174.24609375 C51.06326172 175.11427734 51.06326172 175.11427734 50 176 C49.05125 176.804375 48.1025 177.60875 47.125 178.4375 C45 180 45 180 43 180 C43 180.66 43 181.32 43 182 C40.87874059 183.2879075 39.57183238 184.05533862 37.0625 183.8125 C34.4847283 182.79701418 32.275704 181.58035 30 180 C30 179.34 30 178.68 30 178 C29.34 178 28.68 178 28 178 C27.34 177.34 26.68 176.68 26 176 C25.98018066 176.92337158 25.96036133 177.84674316 25.93994141 178.7980957 C25.86182261 182.22561174 25.77513003 185.65268798 25.68261719 189.07983398 C25.64434653 190.56282212 25.60949022 192.04590248 25.578125 193.52905273 C25.532432 195.66163072 25.47444662 197.79357491 25.4140625 199.92578125 C25.36693115 201.85031128 25.36693115 201.85031128 25.31884766 203.8137207 C25 207 25 207 23 210 C21.35 209.67 19.7 209.34 18 209 C18.01160156 208.38511719 18.02320313 207.77023437 18.03515625 207.13671875 C18.04417969 206.32847656 18.05320313 205.52023437 18.0625 204.6875 C18.07410156 203.88699219 18.08570313 203.08648437 18.09765625 202.26171875 C18.09657855 199.83138666 18.09657855 199.83138666 17 197 C16.87256882 194.88636296 16.79816279 192.76935617 16.75390625 190.65234375 C16.72103516 189.40775391 16.68816406 188.16316406 16.65429688 186.88085938 C16.59301012 184.24813684 16.5357299 181.61531805 16.48242188 178.98242188 C16.44826172 177.73912109 16.41410156 176.49582031 16.37890625 175.21484375 C16.3538501 174.07136475 16.32879395 172.92788574 16.30297852 171.74975586 C16.27439435 168.85745425 16.27439435 168.85745425 14 167 C13.34 167 12.68 167 12 167 C12.00444122 167.78482758 12.00888245 168.56965515 12.01345825 169.37826538 C12.05348917 176.76513958 12.08396099 184.15196138 12.10362434 191.53891563 C12.11407321 195.33686312 12.12825236 199.13472118 12.15087891 202.93261719 C12.17256821 206.59601346 12.18456031 210.25932357 12.18975449 213.92277908 C12.19345731 215.32226544 12.20068777 216.72174695 12.21146011 218.12119675 C12.22592225 220.07733331 12.22681647 222.03355609 12.22705078 223.98974609 C12.231492 225.1044931 12.23593323 226.21924011 12.24050903 227.36776733 C12 230 12 230 10 232 C7.5 232.3125 7.5 232.3125 5 232 C2.53186835 228.29780252 2.75752805 226.46821249 2.77294922 222.05004883 C2.77265717 221.34735367 2.77236511 220.64465851 2.77206421 219.92066956 C2.77345692 217.59933093 2.78901513 215.27831377 2.8046875 212.95703125 C2.80841784 211.34706294 2.81126472 209.73709236 2.81326294 208.12712097 C2.82089773 203.89053068 2.84054487 199.6540776 2.8626709 195.4175415 C2.88313265 191.09413509 2.89226536 186.7707065 2.90234375 182.44726562 C2.92379094 173.96478079 2.95792499 165.48240747 3 157 C2.34 157 1.68 157 1 157 C1.03480469 158.12019531 1.06960937 159.24039063 1.10546875 160.39453125 C1.13360839 161.86717251 1.16090837 163.33982998 1.1875 164.8125 C1.21263672 165.55048828 1.23777344 166.28847656 1.26367188 167.04882812 C1.33771679 172.50347021 1.33771679 172.50347021 -0.37890625 175.02734375 C-2 176 -2 176 -4.125 175.75 C-6 175 -6 175 -7 174 C-7.16850261 171.93829873 -7.2764812 169.8716016 -7.359375 167.8046875 C-7.42382812 166.53109375 -7.48828125 165.2575 -7.5546875 163.9453125 C-7.65531472 161.91811373 -7.74939406 159.89164321 -7.82324219 157.86328125 C-8.22210294 146.90626573 -8.22210294 146.90626573 -14 138 C-17.12197478 139.3089572 -17.12197478 139.3089572 -19 142 C-19.15378852 143.95774069 -19.24971463 145.92017352 -19.31640625 147.8828125 C-19.35830078 149.04941406 -19.40019531 150.21601563 -19.44335938 151.41796875 C-19.48267578 152.64128906 -19.52199219 153.86460937 -19.5625 155.125 C-19.60568359 156.35605469 -19.64886719 157.58710938 -19.69335938 158.85546875 C-19.79968704 161.90352853 -19.90171781 164.9516719 -20 168 C-21.65614657 168.38218767 -23.32457024 168.71395102 -25 169 C-27.03887639 166.96112361 -26.23330298 162.74810338 -26.28125 159.94140625 C-26.29965942 159.12308823 -26.31806885 158.3047702 -26.33703613 157.46165466 C-26.3959613 154.82867858 -26.44859133 152.19563287 -26.5 149.5625 C-26.56832397 146.12618719 -26.64056885 142.69000941 -26.71875 139.25390625 C-26.73703857 138.43072906 -26.75532715 137.60755188 -26.77416992 136.75942993 C-26.90255318 131.7638371 -27.19474495 126.84386891 -27.89648438 121.89038086 C-28 120 -28 120 -27.43164062 117.97875977 C-26.62064271 114.26092148 -29.09809742 111.07313072 -31 108 C-34.7660965 102.20638807 -34.7660965 102.20638807 -40 98 C-40 97.01 -40 96.02 -40 95 C-38.02 94.505 -38.02 94.505 -36 94 C-36.06960937 93.38253906 -36.13921875 92.76507813 -36.2109375 92.12890625 C-36.62776688 85.60850375 -35.42191308 82.14817232 -31.41015625 77.0078125 C-29.39212323 74.13449125 -28.88378316 72.15635757 -29.234375 68.66796875 C-30.16215966 64.20476223 -31.22627757 60.1911258 -33.13671875 56.02734375 C-36.80990931 47.40116319 -38.67593592 39.36922284 -38 30 C-36.02 30 -34.04 30 -32 30 C-31.79503906 30.55429688 -31.59007812 31.10859375 -31.37890625 31.6796875 C-31.10949219 32.40414062 -30.84007812 33.12859375 -30.5625 33.875 C-30.29566406 34.59429687 -30.02882812 35.31359375 -29.75390625 36.0546875 C-29.02083146 38.03648845 -29.02083146 38.03648845 -28 40 C-27.01 40 -26.02 40 -25 40 C-24.69707031 39.09378906 -24.39414063 38.18757813 -24.08203125 37.25390625 C-21.62870605 30.12039144 -19.00023601 23.43442218 -15 17 C-14.34 17 -13.68 17 -13 17 C-12.71125 16.236875 -12.4225 15.47375 -12.125 14.6875 C-11 12 -11 12 -9 9 C-8.34 9 -7.68 9 -7 9 C-6.731875 8.401875 -6.46375 7.80375 -6.1875 7.1875 C-5.00082594 5.00152146 -3.90400887 3.58667406 -2 2 C-1.34 2 -0.68 2 0 2 C0 1.34 0 0.68 0 0 Z " fill="#291E2C" transform="translate(179,134)"/>
<path d="M0 0 C9.17115696 -0.76426308 14.54807151 1.78242102 21.5625 7.5625 C30.6840808 15.98970441 35.44512898 25.95066923 36.12304688 38.22851562 C36.56455968 50.83855215 36.93608581 62.97951581 28.40234375 73.078125 C26.86457006 75.18560315 26.25737029 76.93424058 25.5625 79.4375 C22.99565278 88.09314759 16.49879831 94.31325105 9 99 C5.2062201 100.98721804 2.26343526 101.19829931 -2 101 C-2.33 99.68 -2.66 98.36 -3 97 C-16.06034144 96.2880503 -16.06034144 96.2880503 -28 101 C-29.25683594 101.79277344 -29.25683594 101.79277344 -30.5390625 102.6015625 C-32.72363267 104.02863466 -34.87178644 105.49062868 -37 107 C-36.54115518 103.42101037 -35.75593842 100.23846434 -34.5 96.875 C-33.19402711 93.16953626 -32.76517351 89.8575023 -32.5625 85.9375 C-32.22404021 80.63045042 -31.25768046 76.29186473 -28 72 C-26.68 71.01 -25.36 70.02 -24 69 C-24.33 72.3 -24.66 75.6 -25 79 C-19.01518225 76.55469291 -14.92554589 72.5083777 -10.3125 68.0625 C-9.55388672 67.34642578 -8.79527344 66.63035156 -8.01367188 65.89257812 C-1.61945017 60.05166387 -1.61945017 60.05166387 1.9375 52.375 C2.288125 51.26125 2.63875 50.1475 3 49 C4.32342736 48.31387885 5.65777362 47.64857581 7 47 C13.90668495 38.84111155 15.32862822 29.69870997 15.3984375 19.33203125 C14.9581963 15.65040631 13.76667504 13.22955676 12 10 C12 9.34 12 8.68 12 8 C11.34 8 10.68 8 10 8 C9.236875 7.21625 8.47375 6.4325 7.6875 5.625 C5.10184324 3.09947479 3.39158318 2.06592614 0 1 C0 0.67 0 0.34 0 0 Z " fill="#EDEEEA" transform="translate(247,130)"/>
<path d="M0 0 C1.30522427 4.35054568 0.57885246 8.1668436 -0.1875 12.5625 C-0.39777832 13.77305054 -0.39777832 13.77305054 -0.61230469 15.00805664 C-3.3535516 29.97844392 -10.20669477 43.95062161 -22 54 C-23.32 54 -24.64 54 -26 54 C-26.10441406 54.69867188 -26.20882812 55.39734375 -26.31640625 56.1171875 C-27.10188368 59.42965804 -28.3857848 62.09744809 -29.9375 65.125 C-30.46214844 66.15882813 -30.98679687 67.19265625 -31.52734375 68.2578125 C-33 71 -33 71 -35 74 C-35.66 74 -36.32 74 -37 74 C-37.33 70.7 -37.66 67.4 -38 64 C-38.45890625 65.08539063 -38.9178125 66.17078125 -39.390625 67.2890625 C-40.01010239 68.73450973 -40.62991175 70.17981472 -41.25 71.625 C-41.55035156 72.33785156 -41.85070312 73.05070312 -42.16015625 73.78515625 C-44.06304457 78.19823768 -46.07649523 82.17045036 -49 86 C-49.66 86 -50.32 86 -51 86 C-51.33 82.37 -51.66 78.74 -52 75 C-52.66 75 -53.32 75 -54 75 C-54.226875 76.216875 -54.45375 77.43375 -54.6875 78.6875 C-56.07862675 85.04403536 -58.56385319 90.98401914 -61 97 C-63.09715785 93.85426323 -63.52004559 91.98543749 -64.125 88.3125 C-64.37636719 86.82169922 -64.37636719 86.82169922 -64.6328125 85.30078125 C-64.75398438 84.54152344 -64.87515625 83.78226562 -65 83 C-65.66 83 -66.32 83 -67 83 C-66.95875 83.84820312 -66.9175 84.69640625 -66.875 85.5703125 C-67.01226674 89.33656857 -67.83237837 92.29915876 -69 95.875 C-69.37125 97.02742188 -69.7425 98.17984375 -70.125 99.3671875 C-70.41375 100.23601562 -70.7025 101.10484375 -71 102 C-74.17944452 100.41027774 -74.54987535 97.133267 -75.625 93.9375 C-76.40875 91.648125 -77.1925 89.35875 -78 87 C-78.66 91.95 -79.32 96.9 -80 102 C-82.85106561 98.19857919 -84.71747391 94.70246255 -86.6875 90.4375 C-87.00783203 89.76525391 -87.32816406 89.09300781 -87.65820312 88.40039062 C-89.04125162 85.43081743 -90 83.31483057 -90 80 C-90.66 80 -91.32 80 -92 80 C-92 83.63 -92 87.26 -92 91 C-95.04335099 86.94219868 -97.20986084 82.86602882 -99.5 78.36328125 C-100.83985407 75.70254534 -100.83985407 75.70254534 -104 75 C-105.56748331 72.62638242 -106.95862636 70.30421278 -108.3125 67.8125 C-108.70622803 67.09795654 -109.09995605 66.38341309 -109.50561523 65.6472168 C-119.51881315 47.17026382 -119.51881315 47.17026382 -119 40 C-118.34 40 -117.68 40 -117 40 C-116.63648438 40.67804688 -116.27296875 41.35609375 -115.8984375 42.0546875 C-112.42998809 48.47576565 -108.80816066 54.77460261 -105 61 C-104.67 58.36 -104.34 55.72 -104 53 C-101.02430637 55.78809555 -98.83951712 58.56414179 -96.75 62.0625 C-96.22921875 62.91972656 -95.7084375 63.77695312 -95.171875 64.66015625 C-94 67 -94 67 -94 70 C-93.34 70 -92.68 70 -92 70 C-92.495 69.01 -92.495 69.01 -93 68 C-93.07065617 65.95944995 -93.08421976 63.91665743 -93.0625 61.875 C-93.05347656 60.77929688 -93.04445312 59.68359375 -93.03515625 58.5546875 C-93.02355469 57.71164063 -93.01195312 56.86859375 -93 56 C-90.04185281 58.61227152 -88.28123892 61.66570307 -86.3125 65.0625 C-85.68988281 66.12597656 -85.06726563 67.18945312 -84.42578125 68.28515625 C-83 71 -83 71 -83 73 C-82.34 73 -81.68 73 -81 73 C-80.94392578 72.14728516 -80.94392578 72.14728516 -80.88671875 71.27734375 C-80.43021378 65.91564807 -79.36510918 61.8330492 -77 57 C-76.34 57 -75.68 57 -75 57 C-73.02 62.445 -73.02 62.445 -71 68 C-70.51789063 67.07316406 -70.03578125 66.14632812 -69.5390625 65.19140625 C-68.9013418 63.98161257 -68.26330452 62.77198574 -67.625 61.5625 C-67.30789062 60.95083984 -66.99078125 60.33917969 -66.6640625 59.70898438 C-64.2265625 55.11328125 -64.2265625 55.11328125 -62 54 C-60.79727181 56.40545638 -60.89928528 57.94996953 -60.9375 60.625 C-60.94652344 61.44226563 -60.95554688 62.25953125 -60.96484375 63.1015625 C-60.97644531 63.72804688 -60.98804688 64.35453125 -61 65 C-60.34 65 -59.68 65 -59 65 C-58.89365234 63.95779297 -58.89365234 63.95779297 -58.78515625 62.89453125 C-57.78183911 59.19573522 -55.77802146 56.63734558 -53.4375 53.6875 C-53.01275391 53.13771484 -52.58800781 52.58792969 -52.15039062 52.02148438 C-51.10818741 50.6748173 -50.05516157 49.33653799 -49 48 C-46.89172945 51.16240582 -46.66182535 52.50657469 -46.375 56.1875 C-46.26285156 57.53908203 -46.26285156 57.53908203 -46.1484375 58.91796875 C-46.09945312 59.60503906 -46.05046875 60.29210937 -46 61 C-41.72500877 54.91805372 -38.17180135 48.72253472 -35 42 C-34.34 42 -33.68 42 -33 42 C-32.505 46.95 -32.505 46.95 -32 52 C-31.2265625 50.63875 -31.2265625 50.63875 -30.4375 49.25 C-29.62535563 47.83312943 -28.81278593 46.41650264 -28 45 C-27.40960938 43.96488281 -26.81921875 42.92976563 -26.2109375 41.86328125 C-25.58445312 40.77402344 -24.95796875 39.68476563 -24.3125 38.5625 C-23.40951172 36.98662109 -23.40951172 36.98662109 -22.48828125 35.37890625 C-21.75158203 34.20134766 -21.75158203 34.20134766 -21 33 C-20.67 33 -20.34 33 -20 33 C-19.505 35.97 -19.505 35.97 -19 39 C-18.01 38.67 -17.02 38.34 -16 38 C-15.28050817 36.35544725 -14.63028587 34.68076231 -14 33 C-13.24090024 31.68067902 -12.46847498 30.36899086 -11.6875 29.0625 C-8.86355423 24.07906629 -7.05782222 18.87046443 -5.203125 13.46484375 C-3.6221998 8.91198449 -1.83718826 4.45441176 0 0 Z " fill="#ECEBEA" transform="translate(292,197)"/>
<path d="M0 0 C0.66 0.33 1.32 0.66 2 1 C1.54109375 1.3403125 1.0821875 1.680625 0.609375 2.03125 C-4.22215656 5.84775392 -6.7270048 9.32238968 -9 15 C-9.37253906 15.77085937 -9.74507812 16.54171875 -10.12890625 17.3359375 C-14.69411352 28.18426976 -15.61657759 43.79711585 -11.89453125 55.0078125 C-9.06508226 61.0611645 -5.3934465 65.11671852 0 69 C0 66.36 0 63.72 0 61 C4.83865049 65.52647949 5.10077079 68.6778209 5.375 75.1875 C5.59667314 79.5773636 5.91714018 83.58863644 7.625 87.6875 C9.05206892 91.12543876 9.08046093 91.69378954 8 95 C7.52949219 94.44570312 7.05898437 93.89140625 6.57421875 93.3203125 C5.95160156 92.59585938 5.32898438 91.87140625 4.6875 91.125 C4.07261719 90.40570313 3.45773438 89.68640625 2.82421875 88.9453125 C0.5630218 86.53401468 -1.08900455 85.09343543 -4.4375 84.75 C-7.09411344 85.0091818 -8.72153727 85.64979986 -11 87 C-12.5 85.625 -12.5 85.625 -14 84 C-14 83.34 -14 82.68 -14 82 C-14.66 82 -15.32 82 -16 82 C-16.96608323 80.14985947 -17.9224907 78.29466527 -18.875 76.4375 C-19.40867188 75.40496094 -19.94234375 74.37242187 -20.4921875 73.30859375 C-23.8266935 65.99168551 -24.38499577 59.48914499 -24.375 51.5625 C-24.37628906 50.50804687 -24.37757813 49.45359375 -24.37890625 48.3671875 C-24.25940897 39.44834541 -22.78172654 31.444527 -20 23 C-19.34 23 -18.68 23 -18 23 C-17.979375 22.195625 -17.95875 21.39125 -17.9375 20.5625 C-15.75943424 12.28585013 -8.59560099 6.09453318 -2 1 C-1.34 0.67 -0.68 0.34 0 0 Z " fill="#EAE9E8" transform="translate(189,142)"/>
<path d="M0 0 C0.66 0 1.32 0 2 0 C2.54527344 1.01707031 2.54527344 1.01707031 3.1015625 2.0546875 C6.57001191 8.47576565 10.19183934 14.77460261 14 21 C14.33 18.36 14.66 15.72 15 13 C17.97569363 15.78809555 20.16048288 18.56414179 22.25 22.0625 C22.77078125 22.91972656 23.2915625 23.77695312 23.828125 24.66015625 C25 27 25 27 25 30 C25.66 30 26.32 30 27 30 C26.67 29.34 26.34 28.68 26 28 C25.92934383 25.95944995 25.91578024 23.91665743 25.9375 21.875 C25.94652344 20.77929688 25.95554688 19.68359375 25.96484375 18.5546875 C25.97644531 17.71164063 25.98804688 16.86859375 26 16 C28.42203298 18.23681869 30.09674812 20.52557175 31.75 23.375 C32.42289063 24.50035156 32.42289063 24.50035156 33.109375 25.6484375 C34.21108874 28.55734833 33.95981383 30.07158843 33 33 C32.34 33.66 31.68 34.32 31 35 C30.34 34.67 29.68 34.34 29 34 C29 33.01 29 32.02 29 31 C28.34 31 27.68 31 27 31 C26.814375 31.639375 26.62875 32.27875 26.4375 32.9375 C25 35 25 35 21.5625 35.8125 C18 36 18 36 15 35 C13.43251669 32.62638242 12.04137364 30.30421278 10.6875 27.8125 C10.29377197 27.09795654 9.90004395 26.38341309 9.49438477 25.6472168 C-0.51881315 7.17026382 -0.51881315 7.17026382 0 0 Z " fill="#EBEBE8" transform="translate(173,237)"/>
<path d="M0 0 C0.66 0.66 1.32 1.32 2 2 C1.60490167 4.51147773 1.10256192 6.80783804 0.4375 9.25 C0.24841064 9.96583252 0.05932129 10.68166504 -0.13549805 11.41918945 C-3.39066489 23.42999871 -7.79977487 34.24341347 -14 45 C-14.495 43.515 -14.495 43.515 -15 42 C-17.38564077 42.57584432 -19.66682784 43.22227595 -22 44 C-22 43.34 -22 42.68 -22 42 C-22.8971875 42.495 -22.8971875 42.495 -23.8125 43 C-26 44 -26 44 -29 44 C-28.22914063 43.18015625 -27.45828125 42.3603125 -26.6640625 41.515625 C-25.65080113 40.42730723 -24.63779359 39.3387531 -23.625 38.25 C-23.11710937 37.71117187 -22.60921875 37.17234375 -22.0859375 36.6171875 C-19.5759302 33.90902173 -17.38972557 31.44919841 -16 28 C-15.34 28 -14.68 28 -14 28 C-13.91234375 27.46503906 -13.8246875 26.93007812 -13.734375 26.37890625 C-12.74812618 23.18408959 -11.06398396 20.74371955 -9.25 17.9375 C-5.59491602 12.18287925 -2.62649834 6.30107053 0 0 Z " fill="#3A313A" transform="translate(364,162)"/>
<path d="M0 0 C0.99 0.66 1.98 1.32 3 2 C3.99 1.34 4.98 0.68 6 0 C6.33 0.99 6.66 1.98 7 3 C7.66 3.33 8.32 3.66 9 4 C8.43152344 4.8971875 7.86304688 5.794375 7.27734375 6.71875 C1.60770659 15.82639796 -2.94373856 25.07454997 -7 35 C-7.66 35 -8.32 35 -9 35 C-9.98813329 22.89536714 -4.91886607 10.82553721 0 0 Z " fill="#38313E" transform="translate(216,353)"/>
<path d="M0 0 C3.39722345 0.24666309 4.35428917 0.57301292 7.125 2.75 C8.9158923 6.57599719 8.62046692 8.65381907 7.5 12.6875 C5.87227148 14.83789364 5.01893752 15.59160937 2.34375 16.0859375 C1.18359375 16.07433594 1.18359375 16.07433594 0 16.0625 C-0.7734375 16.07023437 -1.546875 16.07796875 -2.34375 16.0859375 C-5.00600864 15.5939984 -5.86116887 14.80745586 -7.5 12.6875 C-8.79506704 8.80229888 -8.68206883 7.13439623 -7.125 3.3125 C-4.30924322 0.49674322 -3.76653191 0.21753897 0 0 Z " fill="#342933" transform="translate(356.5,249.3125)"/>
<path d="M0 0 C0.66 0.33 1.32 0.66 2 1 C0.7934375 2.36125 0.7934375 2.36125 -0.4375 3.75 C-2.46183957 6.15532483 -3.42161152 7.8767022 -4 11 C-4.99 11.495 -4.99 11.495 -6 12 C-5.67 12.99 -5.34 13.98 -5 15 C-5.99 15.33 -6.98 15.66 -8 16 C-8.33 16.66 -8.66 17.32 -9 18 C-8.01 17.67 -7.02 17.34 -6 17 C-5.01 17 -4.02 17 -3 17 C-3.50298788 21.40114397 -5.08772731 23.71195019 -8 27 C-10.42501634 26.52846905 -12.81107261 26.05397926 -15.1875 25.375 C-17.08903493 24.78653641 -17.08903493 24.78653641 -19 26 C-17.80100302 22.9168649 -16.52299523 19.93720508 -15 17 C-14.34 17 -13.68 17 -13 17 C-12.71125 16.236875 -12.4225 15.47375 -12.125 14.6875 C-11 12 -11 12 -9 9 C-8.34 9 -7.68 9 -7 9 C-6.731875 8.401875 -6.46375 7.80375 -6.1875 7.1875 C-5.00082594 5.00152146 -3.90400887 3.58667406 -2 2 C-1.34 2 -0.68 2 0 2 C0 1.34 0 0.68 0 0 Z " fill="#322936" transform="translate(179,134)"/>
<path d="M0 0 C1.32 0.66 2.64 1.32 4 2 C4 4.75 4 4.75 3 8 C0.52785839 9.78773009 -2.18964109 10.84400228 -5 12 C-6.11375 12.5775 -7.2275 13.155 -8.375 13.75 C-11 15 -11 15 -13 15 C-13 14 -13 13 -13 12 C-13.66 11.67 -14.32 11.34 -15 11 C-15.625 8.4375 -15.625 8.4375 -16 6 C-14.39318359 5.47599609 -14.39318359 5.47599609 -12.75390625 4.94140625 C-11.35671896 4.48192855 -9.95958635 4.02228454 -8.5625 3.5625 C-7.50192383 3.21735352 -7.50192383 3.21735352 -6.41992188 2.86523438 C-2.93693205 1.92578853 -2.93693205 1.92578853 0 0 Z " fill="#32252D" transform="translate(320,123)"/>
<path d="M0 0 C0.66 0.66 1.32 1.32 2 2 C1.58206796 4.59239005 1.05988229 6.97687064 0.375 9.5 C0.1884082 10.21671875 0.00181641 10.9334375 -0.19042969 11.671875 C-1.70045183 17.29715013 -3.59950613 22.68826888 -6 28 C-6.66 27.01 -7.32 26.02 -8 25 C-8.33 25.66 -8.66 26.32 -9 27 C-10.32 26.67 -11.64 26.34 -13 26 C-13 26.99 -13 27.98 -13 29 C-13.99 29.33 -14.98 29.66 -16 30 C-16 29.34 -16 28.68 -16 28 C-15.34 28 -14.68 28 -14 28 C-13.91234375 27.46503906 -13.8246875 26.93007812 -13.734375 26.37890625 C-12.74812618 23.18408959 -11.06398396 20.74371955 -9.25 17.9375 C-5.59491602 12.18287925 -2.62649834 6.30107053 0 0 Z " fill="#4A444C" transform="translate(364,162)"/>
<path d="M0 0 C0.66 0 1.32 0 2 0 C2.22142255 1.95689659 2.4267568 3.91561952 2.625 5.875 C2.74101562 6.96554688 2.85703125 8.05609375 2.9765625 9.1796875 C2.98429687 10.11039063 2.99203125 11.04109375 3 12 C2.34 12.66 1.68 13.32 1 14 C1.804375 14.268125 2.60875 14.53625 3.4375 14.8125 C4.283125 15.204375 5.12875 15.59625 6 16 C7 19 7 19 6.07421875 21.375 C5.61660156 22.24125 5.15898437 23.1075 4.6875 24 C4.01267578 25.299375 4.01267578 25.299375 3.32421875 26.625 C2 29 2 29 0 32 C-0.66 32 -1.32 32 -2 32 C-2.22224251 29.41718164 -2.42823488 26.83477813 -2.625 24.25 C-2.68945312 23.52039063 -2.75390625 22.79078125 -2.8203125 22.0390625 C-3.10381649 18.14088264 -3.27081383 15.29354678 -1 12 C-0.34 12 0.32 12 1 12 C0.67 9.69 0.34 7.38 0 5 C-0.99 5.495 -0.99 5.495 -2 6 C-1.49396008 3.83125748 -1.00016187 2.00032373 0 0 Z " fill="#E0E0E1" transform="translate(257,239)"/>
<path d="M0 0 C0.66 0 1.32 0 2 0 C2.54527344 1.01707031 2.54527344 1.01707031 3.1015625 2.0546875 C6.57001191 8.47576565 10.19183934 14.77460261 14 21 C14.33 18.36 14.66 15.72 15 13 C15.66 13.66 16.32 14.32 17 15 C16.9765625 17.1640625 16.9765625 17.1640625 16.625 19.625 C16.45871094 20.85089844 16.45871094 20.85089844 16.2890625 22.1015625 C16.14597656 23.04128906 16.14597656 23.04128906 16 24 C15.360625 24.12375 14.72125 24.2475 14.0625 24.375 C13.381875 24.58125 12.70125 24.7875 12 25 C11.67 25.66 11.34 26.32 11 27 C-0.37083761 8.41059694 -0.37083761 8.41059694 0 0 Z " fill="#E4DFE6" transform="translate(173,237)"/>
<path d="M0 0 C1.98 0 3.96 0 6 0 C6.20496094 0.55429688 6.40992188 1.10859375 6.62109375 1.6796875 C6.89050781 2.40414062 7.15992188 3.12859375 7.4375 3.875 C7.70433594 4.59429687 7.97117188 5.31359375 8.24609375 6.0546875 C8.97916854 8.03648845 8.97916854 8.03648845 10 10 C10.99 10 11.98 10 13 10 C13.66 7.69 14.32 5.38 15 3 C15.33 3 15.66 3 16 3 C16.33 4.98 16.66 6.96 17 9 C16.34 9 15.68 9 15 9 C15 9.99 15 10.98 15 12 C13.02 12.33 11.04 12.66 9 13 C8.34 12.01 7.68 11.02 7 10 C4.49701566 12.93828597 3.53069061 15.17902761 3 19 C2.67 19 2.34 19 2 19 C0.04978464 12.53991163 -0.22262303 6.7281627 0 0 Z " fill="#433643" transform="translate(141,164)"/>
<path d="M0 0 C1.98 0.66 3.96 1.32 6 2 C5.67 26.09 5.34 50.18 5 75 C4.67 75 4.34 75 4 75 C4 51.24 4 27.48 4 3 C3.34 3 2.68 3 2 3 C2 8.28 2 13.56 2 19 C1.67 19 1.34 19 1 19 C0.93941406 17.95199219 0.87882813 16.90398437 0.81640625 15.82421875 C0.73198262 14.44529952 0.64733553 13.06639395 0.5625 11.6875 C0.52318359 10.99720703 0.48386719 10.30691406 0.44335938 9.59570312 C0.25072585 6.52838465 -0.02322717 3.93031848 -1 1 C-0.67 0.67 -0.34 0.34 0 0 Z " fill="#CCC5C9" transform="translate(178,288)"/>
<path d="M0 0 C1 1 1 1 1.25 3.875 C1 7 1 7 -0.0625 8.9375 C-3.12469653 10.61676907 -5.69370941 9.68621125 -9 9 C-9.78260048 6.18263828 -10.19511109 4.54030762 -9.1875 1.75 C-6.66035186 -1.97421831 -3.98536878 -0.8479508 0 0 Z " fill="#4C444C" transform="translate(261,338)"/>
<path d="M0 0 C1.4540625 0.2165625 1.4540625 0.2165625 2.9375 0.4375 C5.50437367 4.2878105 4.77038724 6.02319763 3.9375 10.4375 C1.125 11.0625 1.125 11.0625 -2.0625 11.4375 C-5.0625 9.4375 -5.0625 9.4375 -5.9375 7.0625 C-6.0625 4.4375 -6.0625 4.4375 -5 2.125 C-3.0625 0.4375 -3.0625 0.4375 0 0 Z " fill="#3A2D37" transform="translate(134.0625,211.5625)"/>
<path d="M0 0 C-1.52763464 4.08596252 -4.11084191 5.79826179 -7.625 8.25 C-8.62789063 8.95640625 -9.63078125 9.6628125 -10.6640625 10.390625 C-11.43492187 10.92171875 -12.20578125 11.4528125 -13 12 C-13.66 11.67 -14.32 11.34 -15 11 C-15.144375 10.360625 -15.28875 9.72125 -15.4375 9.0625 C-15.86165035 6.61789145 -15.86165035 6.61789145 -19 5 C-16.77417611 4.15665671 -14.54503974 3.32521449 -12.3125 2.5 C-11.68666016 2.26152344 -11.06082031 2.02304688 -10.41601562 1.77734375 C-6.81807701 0.4587275 -3.83479747 -0.29329235 0 0 Z " fill="#47394B" transform="translate(332,150)"/>
<path d="M0 0 C0.5534764 2.07553648 1 3.84365964 1 6 C1.99 6.33 2.98 6.66 4 7 C4.8125 8.875 4.8125 8.875 5 11 C4.01 12.485 4.01 12.485 3 14 C2.34 14 1.68 14 1 14 C0.67 14.99 0.34 15.98 0 17 C-0.94875 16.814375 -1.8975 16.62875 -2.875 16.4375 C-5.89868793 15.71313368 -5.89868793 15.71313368 -8 17 C-6.3341708 10.83643195 -3.12194714 5.51740344 0 0 Z " fill="#3B323C" transform="translate(226,333)"/>
<path d="M0 0 C0 1.65 0 3.3 0 5 C-0.66 5 -1.32 5 -2 5 C-2 5.66 -2 6.32 -2 7 C-4.31 8.32 -6.62 9.64 -9 11 C-9.45375 10.195625 -9.9075 9.39125 -10.375 8.5625 C-11.74725665 5.91143428 -11.74725665 5.91143428 -14 5 C-12.61765122 3.96097967 -11.21844209 2.94436554 -9.8125 1.9375 C-9.03519531 1.36902344 -8.25789063 0.80054688 -7.45703125 0.21484375 C-4.48016155 -1.25702664 -3.112514 -0.96747771 0 0 Z " fill="#3E343F" transform="translate(353,240)"/>
<path d="M0 0 C0.91606054 2.99395394 1.01724679 5.17640028 0.51171875 8.2578125 C0.38216797 9.04800781 0.25261719 9.83820313 0.11914062 10.65234375 C-0.02330078 11.46832031 -0.16574219 12.28429687 -0.3125 13.125 C-0.44333984 13.94871094 -0.57417969 14.77242187 -0.70898438 15.62109375 C-0.84240234 16.40871094 -0.97582031 17.19632813 -1.11328125 18.0078125 C-1.23485596 18.72598145 -1.35643066 19.44415039 -1.48168945 20.18408203 C-2 22 -2 22 -4 24 C-4.66 23.67 -5.32 23.34 -6 23 C-7.485 25.475 -7.485 25.475 -9 28 C-10 25 -10 25 -9.1796875 22.79296875 C-8.53386719 21.50326172 -8.53386719 21.50326172 -7.875 20.1875 C-4.72988346 13.61535171 -2.36201466 6.88502147 0 0 Z " fill="#DFDCE4" transform="translate(292,197)"/>
<path d="M0 0 C1.9453125 1.12109375 1.9453125 1.12109375 4 3 C4.6796875 5.84765625 4.6796875 5.84765625 4.875 9.0625 C4.95492187 10.12597656 5.03484375 11.18945312 5.1171875 12.28515625 C5 15 5 15 3 17 C-0.53571429 16.46428571 -0.53571429 16.46428571 -2 15 C-2.07271741 12.64686445 -2.08370868 10.29166332 -2.0625 7.9375 C-2.05347656 6.64714844 -2.04445312 5.35679687 -2.03515625 4.02734375 C-2.02355469 3.02832031 -2.01195312 2.02929688 -2 1 C-1.34 0.67 -0.68 0.34 0 0 Z " fill="#3A2E3B" transform="translate(174,293)"/>
<path d="M0 0 C0.721875 0.268125 1.44375 0.53625 2.1875 0.8125 C2.5175 1.8025 2.8475 2.7925 3.1875 3.8125 C1.08671489 6.88864963 -0.69871595 8.73664397 -3.8125 10.8125 C-5.1325 10.8125 -6.4525 10.8125 -7.8125 10.8125 C-8.28651764 6.73594826 -8.12270611 5.22906249 -5.625 1.875 C-2.8125 -0.1875 -2.8125 -0.1875 0 0 Z " fill="#3D333B" transform="translate(240.8125,346.1875)"/>
<path d="M0 0 C0.99 0.99 1.98 1.98 3 3 C2.25894564 4.42136655 1.50669368 5.83689734 0.75 7.25 C0.33234375 8.03890625 -0.0853125 8.8278125 -0.515625 9.640625 C-2 12 -2 12 -6 16 C-6.33 11.71 -6.66 7.42 -7 3 C-4.69 2.01 -2.38 1.02 0 0 Z " fill="#37333F" transform="translate(251,243)"/>
<path d="M0 0 C-2 3 -2 3 -3 4 C-2.71395102 5.67542976 -2.38218767 7.34385343 -2 9 C-7.75 12 -7.75 12 -10 12 C-10 11 -10 10 -10 9 C-10.66 8.67 -11.32 8.34 -12 8 C-12.625 5.4375 -12.625 5.4375 -13 3 C-11.21189234 2.30329584 -9.41937948 1.61788811 -7.625 0.9375 C-6.62726563 0.55464844 -5.62953125 0.17179687 -4.6015625 -0.22265625 C-2 -1 -2 -1 0 0 Z " fill="#413642" transform="translate(317,126)"/>
<path d="M0 0 C-1.06478542 3.10000819 -1.95797481 3.97462191 -4.8203125 5.703125 C-5.91085937 6.21359375 -7.00140625 6.7240625 -8.125 7.25 C-9.22070312 7.77078125 -10.31640625 8.2915625 -11.4453125 8.828125 C-12.28835938 9.21484375 -13.13140625 9.6015625 -14 10 C-15.32 8.35 -16.64 6.7 -18 5 C-15.94175571 4.15621025 -13.87820214 3.32536378 -11.8125 2.5 C-10.66394531 2.0359375 -9.51539063 1.571875 -8.33203125 1.09375 C-5.28009923 0.09194348 -3.16884928 -0.23870804 0 0 Z " fill="#564B58" transform="translate(342,171)"/>
<path d="M0 0 C0.33 0 0.66 0 1 0 C1.06943077 8.17960554 1.12277566 16.35908851 1.15543652 24.53891563 C1.17111006 28.33692183 1.19237859 32.13472681 1.22631836 35.93261719 C1.25885241 39.59602467 1.27684029 43.25923831 1.28463173 46.92277908 C1.29018603 48.3222827 1.30103199 49.72177539 1.31719017 51.12119675 C1.33888273 53.07727511 1.3402247 55.03354748 1.34057617 56.98974609 C1.34723801 58.1044931 1.35389984 59.21924011 1.36076355 60.36776733 C1.24171158 61.23640411 1.12265961 62.10504089 1 63 C-0.485 63.99 -0.485 63.99 -2 65 C-2.33 64.01 -2.66 63.02 -3 62 C-2.01 61.505 -2.01 61.505 -1 61 C-0.67 40.87 -0.34 20.74 0 0 Z " fill="#50444D" transform="translate(190,301)"/>
<path d="M0 0 C0.99 0.66 1.98 1.32 3 2 C3.99 1.34 4.98 0.68 6 0 C6.33 0.99 6.66 1.98 7 3 C7.66 3.33 8.32 3.66 9 4 C7.68 6.31 6.36 8.62 5 11 C3.576875 10.4740625 3.576875 10.4740625 2.125 9.9375 C-0.87060172 8.64973223 -0.87060172 8.64973223 -3 10 C-2.39009109 6.44219804 -1.4216319 3.3171411 0 0 Z " fill="#3E3641" transform="translate(216,353)"/>
<path d="M0 0 C0.515625 0.2475 1.03125 0.495 1.5625 0.75 C1.00090585 4.00724605 0.27206113 5.78790401 -2.4375 7.75 C-5.625 8.4375 -5.625 8.4375 -8.4375 8.75 C-8.7675 7.1 -9.0975 5.45 -9.4375 3.75 C-3.0375 -0.31153846 -3.0375 -0.31153846 0 0 Z " fill="#E2DEE1" transform="translate(284.4375,295.25)"/>
<path d="M0 0 C0.66 0.33 1.32 0.66 2 1 C2.484375 3.765625 2.484375 3.765625 2.75 7.25 C2.89695313 8.95929688 2.89695313 8.95929688 3.046875 10.703125 C2.99938166 14.04349003 2.56186062 16.06883691 1 19 C0.34 19.33 -0.32 19.66 -1 20 C-3.40814077 16.48812804 -4.36629408 14.27343092 -4 10 C-2.68 9.67 -1.36 9.34 0 9 C0 6.03 0 3.06 0 0 Z " fill="#EBEAEA" transform="translate(189,252)"/>
<path d="M0 0 C3 0.125 3 0.125 4 1.125 C4.04080783 3.12458364 4.04254356 5.12545254 4 7.125 C1.75 8.3125 1.75 8.3125 -1 9.125 C-3.3125 7.75 -3.3125 7.75 -5 6.125 C-3.93003229 0.16375135 -3.93003229 0.16375135 0 0 Z " fill="#352A33" transform="translate(310,114.875)"/>
<path d="M0 0 C1.98 0 3.96 0 6 0 C6.33 2.31 6.66 4.62 7 7 C5.35 7.66 3.7 8.32 2 9 C0.68 7.68 -0.64 6.36 -2 5 C-1.34 3.35 -0.68 1.7 0 0 Z " fill="#463E45" transform="translate(272,324)"/>
<path d="M0 0 C0.66 0 1.32 0 2 0 C2.5345256 1.24420647 3.05208611 2.49570936 3.5625 3.75 C3.85253906 4.44609375 4.14257812 5.1421875 4.44140625 5.859375 C5.09196987 8.352444 5.02095523 9.64000299 4 12 C3.01 12.33 2.02 12.66 1 13 C1 12.34 1 11.68 1 11 C-0.32 11 -1.64 11 -3 11 C-2.44894091 7.0507432 -1.61064629 3.65079826 0 0 Z " fill="#E8E9EA" transform="translate(215,254)"/>
<path d="M0 0 C0.1875 2.875 0.1875 2.875 0 6 C-3 8 -3 8 -5.125 7.6875 C-7 7 -7 7 -8 6 C-8.04080783 4.00041636 -8.04254356 1.99954746 -8 0 C-4.71023192 -1.09658936 -3.28696233 -0.79953138 0 0 Z " fill="#5B535A" transform="translate(291,326)"/>
<path d="M0 0 C2.875 -0.125 2.875 -0.125 6 0 C6.66 0.66 7.32 1.32 8 2 C7.625 4.625 7.625 4.625 7 7 C4.6875 7.6875 4.6875 7.6875 2 8 C0.125 6.875 0.125 6.875 -1 5 C-0.6875 2.3125 -0.6875 2.3125 0 0 Z " fill="#534C51" transform="translate(334,266)"/>
<path d="M0 0 C0 1.32 0 2.64 0 4 C-0.66 4 -1.32 4 -2 4 C-2 4.66 -2 5.32 -2 6 C-2.66 6 -3.32 6 -4 6 C-4.33 6.99 -4.66 7.98 -5 9 C-5.5775 8.360625 -6.155 7.72125 -6.75 7.0625 C-9.04285821 4.96071331 -10.06312654 4.58614071 -13 4 C-11.59248779 3.13083113 -10.1735479 2.28014851 -8.75 1.4375 C-7.96109375 0.96183594 -7.1721875 0.48617187 -6.359375 -0.00390625 C-3.69155375 -1.13022151 -2.65498232 -1.0169313 0 0 Z " fill="#433842" transform="translate(338,183)"/>
<path d="M0 0 C0.144375 0.61875 0.28875 1.2375 0.4375 1.875 C1.18475714 4.69797142 1.90847581 5.90847581 4 8 C2.35 11.96 0.7 15.92 -1 20 C-1.66 20 -2.32 20 -3 20 C-3.40850553 12.91923749 -1.90420731 6.80074041 0 0 Z " fill="#6C6272" transform="translate(210,368)"/>
<path d="M0 0 C1.80411967 2.75924185 2.0127245 3.88972103 1.625 7.25 C1.41875 8.1575 1.2125 9.065 1 10 C-2.75 11.125 -2.75 11.125 -5 10 C-5.125 6.625 -5.125 6.625 -5 3 C-4.34 2.34 -3.68 1.68 -3 1 C-2.01 1.33 -1.02 1.66 0 2 C0 1.34 0 0.68 0 0 Z " fill="#5D5260" transform="translate(202,333)"/>
<path d="M0 0 C2.375 -0.125 2.375 -0.125 5 0 C5.66 0.66 6.32 1.32 7 2 C6.625 5.125 6.625 5.125 6 8 C4.1875 8.6875 4.1875 8.6875 2 9 C0.1875 7.9375 0.1875 7.9375 -1 6 C-0.6875 2.8125 -0.6875 2.8125 0 0 Z " fill="#3C343F" transform="translate(153,308)"/>
<path d="M0 0 C0 2.97 0 5.94 0 9 C-0.66 9 -1.32 9 -2 9 C-2.103125 9.639375 -2.20625 10.27875 -2.3125 10.9375 C-2.539375 11.618125 -2.76625 12.29875 -3 13 C-3.99 13.33 -4.98 13.66 -6 14 C-6.33 14.66 -6.66 15.32 -7 16 C-7.33 15.34 -7.66 14.68 -8 14 C-7.33333333 12.66666667 -6.66666667 11.33333333 -6 10 C-5.87625 9.01 -5.7525 8.02 -5.625 7 C-5.05208663 4.25001583 -3.47763816 0 0 0 Z " fill="#F2F3F7" transform="translate(258,242)"/>
<path d="M0 0 C0.33 1.32 0.66 2.64 1 4 C2.65 3.34 4.3 2.68 6 2 C5.34 3.32 4.68 4.64 4 6 C3.01 6 2.02 6 1 6 C1.33 8.31 1.66 10.62 2 13 C2.66 13 3.32 13 4 13 C3.67 13.99 3.34 14.98 3 16 C2.01 16.33 1.02 16.66 0 17 C-2.1875 15.75 -2.1875 15.75 -4 14 C-4 13.01 -4 12.02 -4 11 C-2.68 10.67 -1.36 10.34 0 10 C0 6.7 0 3.4 0 0 Z " fill="#473C46" transform="translate(143,218)"/>
<path d="M0 0 C0.66 0.66 1.32 1.32 2 2 C2.99 1.67 3.98 1.34 5 1 C4.67 5.62 4.34 10.24 4 15 C-2 7 -2 7 -2 2 C-1.34 2 -0.68 2 0 2 C0 1.34 0 0.68 0 0 Z " fill="#EBE9E7" transform="translate(208,284)"/>
<path d="M0 0 C-0.37596209 2.78211944 -0.67318459 4.5879284 -2.4375 6.8125 C-4 8 -4 8 -6 8 C-6.33 8.66 -6.66 9.32 -7 10 C-7.66 9.67 -8.32 9.34 -9 9 C-9 8.01 -9 7.02 -9 6 C-9.66 5.67 -10.32 5.34 -11 5 C-9.73461631 4.15841464 -8.46246221 3.32700252 -7.1875 2.5 C-6.47980469 2.0359375 -5.77210938 1.571875 -5.04296875 1.09375 C-3 0 -3 0 0 0 Z " fill="#362D3A" transform="translate(357,214)"/>
<path d="M0 0 C2.625 0.375 2.625 0.375 5 1 C5.625 2.8125 5.625 2.8125 6 5 C5.01 6.485 5.01 6.485 4 8 C2.35 7.67 0.7 7.34 -1 7 C-1.625 4.625 -1.625 4.625 -2 2 C-1.34 1.34 -0.68 0.68 0 0 Z " fill="#3F3641" transform="translate(139,258)"/>
<path d="M0 0 C6.19887485 -0.37952295 10.4477112 0.1647887 16 3 C14.625 4.5 14.625 4.5 13 6 C12.34 6 11.68 6 11 6 C10.67 6.66 10.34 7.32 10 8 C9.278125 7.21625 8.55625 6.4325 7.8125 5.625 C5.16700959 3.15587562 3.39626389 2.06739722 0 1 C0 0.67 0 0.34 0 0 Z " fill="#DCD6DB" transform="translate(247,130)"/>
<path d="M0 0 C0.66 0.66 1.32 1.32 2 2 C1.5390625 5.0390625 1.5390625 5.0390625 0.625 8.625 C0.18027344 10.40777344 0.18027344 10.40777344 -0.2734375 12.2265625 C-0.51320313 13.14179688 -0.75296875 14.05703125 -1 15 C-1.66 14.01 -2.32 13.02 -3 12 C-3.33 12.99 -3.66 13.98 -4 15 C-6.0625 16.1875 -6.0625 16.1875 -8 17 C-6.51095825 13.10391502 -4.75621287 9.40902982 -2.875 5.6875 C-2.06675781 4.08455078 -2.06675781 4.08455078 -1.2421875 2.44921875 C-0.62730469 1.23685547 -0.62730469 1.23685547 0 0 Z " fill="#615B62" transform="translate(364,162)"/>
<path d="M0 0 C0.66 0 1.32 0 2 0 C3.03046722 1.78614318 4.04913236 3.57910018 5.0625 5.375 C5.63097656 6.37273437 6.19945312 7.37046875 6.78515625 8.3984375 C7.18605469 9.25695312 7.58695313 10.11546875 8 11 C7.67 11.66 7.34 12.32 7 13 C6.34 12.67 5.68 12.34 5 12 C4.67 12.99 4.34 13.98 4 15 C3.32243118 13.44219668 2.65840543 11.87849904 2 10.3125 C1.62875 9.44238281 1.2575 8.57226562 0.875 7.67578125 C-0.01870488 4.9427998 -0.16449676 2.85299066 0 0 Z " fill="#D5D0D7" transform="translate(173,237)"/>
<path d="M0 0 C1.98 0 3.96 0 6 0 C6.625 2.375 6.625 2.375 7 5 C6.34 5.66 5.68 6.32 5 7 C2.375 6.625 2.375 6.625 0 6 C-1.125 2.25 -1.125 2.25 0 0 Z " fill="#635960" transform="translate(297,313)"/>
<path d="M0 0 C2.5 0.125 2.5 0.125 3.5 1.125 C3.625 3.625 3.625 3.625 3.5 6.125 C2.5 7.125 2.5 7.125 0 7.25 C-2.5 7.125 -2.5 7.125 -3.5 6.125 C-3.625 3.625 -3.625 3.625 -3.5 1.125 C-2.5 0.125 -2.5 0.125 0 0 Z " fill="#443E47" transform="translate(174.5,316.875)"/>
<path d="M0 0 C0.33 0 0.66 0 1 0 C1 4.62 1 9.24 1 14 C-0.65 14.33 -2.3 14.66 -4 15 C-5 14 -5 14 -5.0625 11.4375 C-5.041875 10.633125 -5.02125 9.82875 -5 9 C-3.68 8.67 -2.36 8.34 -1 8 C-0.67 5.36 -0.34 2.72 0 0 Z " fill="#372E37" transform="translate(158,288)"/>
<path d="M0 0 C0.33 0.66 0.66 1.32 1 2 C0.34 2 -0.32 2 -1 2 C-1.33 3.65 -1.66 5.3 -2 7 C-1.34 7.33 -0.68 7.66 0 8 C-0.33 8.99 -0.66 9.98 -1 11 C-1.99 11.33 -2.98 11.66 -4 12 C-4.45375 11.195625 -4.9075 10.39125 -5.375 9.5625 C-6.74725665 6.91143428 -6.74725665 6.91143428 -9 6 C-6.03 4.02 -3.06 2.04 0 0 Z " fill="#4D454F" transform="translate(348,239)"/>
<path d="M0 0 C0.66 0 1.32 0 2 0 C0.37621488 4.72373854 -2.10993018 8.94181834 -5 13 C-5.33 13 -5.66 13 -6 13 C-6.33 9.04 -6.66 5.08 -7 1 C-6.34 1 -5.68 1 -5 1 C-5 1.99 -5 2.98 -5 4 C-3.35 3.34 -1.7 2.68 0 2 C0 1.34 0 0.68 0 0 Z " fill="#36343D" transform="translate(265,237)"/>
<path d="M0 0 C1.485 0.99 1.485 0.99 3 2 C2.814375 2.5775 2.62875 3.155 2.4375 3.75 C1.95261433 6.24369772 2.30093578 7.59211213 3 10 C3 13.41775006 2.75017896 16.77881173 2.5 20.1875 C2.4071875 21.45980469 2.314375 22.73210937 2.21875 24.04296875 C2.1465625 25.01878906 2.074375 25.99460937 2 27 C1.67 27 1.34 27 1 27 C0.05757182 17.96278689 -0.11157151 9.07448253 0 0 Z " fill="#1C101B" transform="translate(172,279)"/>
<path d="M0 0 C0.66 0 1.32 0 2 0 C2 0.66 2 1.32 2 2 C2.99 2 3.98 2 5 2 C5 2.66 5 3.32 5 4 C5.66 4 6.32 4 7 4 C5.87548273 6.9719385 4.77706209 9.33440687 3 12 C2.34 12 1.68 12 1 12 C0.67 8.04 0.34 4.08 0 0 Z " fill="#D2CED0" transform="translate(254,259)"/>
<path d="M0 0 C1.32 0.33 2.64 0.66 4 1 C4.625 3.375 4.625 3.375 5 6 C4.34 6.66 3.68 7.32 3 8 C0.875 7.625 0.875 7.625 -1 7 C-1.625 5.1875 -1.625 5.1875 -2 3 C-1.34 2.01 -0.68 1.02 0 0 Z " fill="#534F55" transform="translate(333,130)"/>
<path d="M0 0 C2.83967231 2.83967231 4.8346853 5.64002892 7 9 C6.67 9.66 6.34 10.32 6 11 C2.9375 11.625 2.9375 11.625 0 12 C0 8.04 0 4.08 0 0 Z " fill="#D7D3D6" transform="translate(199,253)"/>
<path d="M0 0 C1.98 0 3.96 0 6 0 C6.042721 1.66611905 6.04063832 3.33382885 6 5 C5 6 5 6 1.9375 6.0625 C0.968125 6.041875 -0.00125 6.02125 -1 6 C-1 2 -1 2 0 0 Z " fill="#3A3439" transform="translate(332,119)"/>
<path d="M0 0 C1.98 0 3.96 0 6 0 C5.278125 0.556875 4.55625 1.11375 3.8125 1.6875 C0.92913577 3.9729976 0.92913577 3.9729976 -1.6875 6.75 C-4 9 -4 9 -6 9 C-6 9.66 -6 10.32 -6 11 C-6.66 10.67 -7.32 10.34 -8 10 C-7.34 8.68 -6.68 7.36 -6 6 C-5.34 6 -4.68 6 -4 6 C-4 5.34 -4 4.68 -4 4 C-3.34 4 -2.68 4 -2 4 C-1.34 2.68 -0.68 1.36 0 0 Z " fill="#685C65" transform="translate(250,286)"/>
<path d="M0 0 C2.35953094 2.35953094 2.49141413 3.77895617 3 7 C0 9 0 9 -2.1875 8.625 C-2.785625 8.41875 -3.38375 8.2125 -4 8 C-3.34 7.01 -2.68 6.02 -2 5 C-3.32 4.01 -4.64 3.02 -6 2 C-4.02 1.34 -2.04 0.68 0 0 Z " fill="#39303A" transform="translate(341,245)"/>
<path d="M0 0 C0.33 0 0.66 0 1 0 C1.125 6.625 1.125 6.625 0 10 C-1.32 10 -2.64 10 -4 10 C-4.66 10.66 -5.32 11.32 -6 12 C-6.36625971 7.48279689 -6.36625971 7.48279689 -4.625 5.1875 C-3 4 -3 4 -1 4 C-0.67 2.68 -0.34 1.36 0 0 Z " fill="#2E2630" transform="translate(361,173)"/>
<path d="M0 0 C2.50357192 1.25178596 4.06433379 2.99981158 6 5 C4.35 6.32 2.7 7.64 1 9 C0.34 8.67 -0.32 8.34 -1 8 C-1.144375 7.360625 -1.28875 6.72125 -1.4375 6.0625 C-1.86165035 3.61789145 -1.86165035 3.61789145 -5 2 C-2.625 0.9375 -2.625 0.9375 0 0 Z " fill="#514852" transform="translate(318,153)"/>
<path d="M0 0 C0.66 0.33 1.32 0.66 2 1 C2 1.99 2 2.98 2 4 C0.88625 4.103125 -0.2275 4.20625 -1.375 4.3125 C-2.57125 4.539375 -3.7675 4.76625 -5 5 C-5.99 6.485 -5.99 6.485 -7 8 C-7.66 8 -8.32 8 -9 8 C-9 8.66 -9 9.32 -9 10 C-9.66 10 -10.32 10 -11 10 C-10.690625 9.236875 -10.38125 8.47375 -10.0625 7.6875 C-9.32106407 5.81210323 -8.63771783 3.91315348 -8 2 C-6.2984375 1.7834375 -6.2984375 1.7834375 -4.5625 1.5625 C-1.19222799 1.38828522 -1.19222799 1.38828522 0 0 Z " fill="#352836" transform="translate(255,282)"/>
<path d="M0 0 C0.99 0 1.98 0 3 0 C3.66 0.99 4.32 1.98 5 3 C5.66 3.66 6.32 4.32 7 5 C5.7260411 7.03833424 4.38938077 9.03852126 3 11 C2.34 11 1.68 11 1 11 C0.67 7.37 0.34 3.74 0 0 Z " fill="#DAD8DA" transform="translate(240,272)"/>
<path d="M0 0 C1.81155838 2.71733757 3.01896005 4.90595092 4 8 C3.55078125 10.16015625 3.55078125 10.16015625 3 12 C2.51789063 11.44570312 2.03578125 10.89140625 1.5390625 10.3203125 C0.90742188 9.59585938 0.27578125 8.87140625 -0.375 8.125 C-1.00148437 7.40570313 -1.62796875 6.68640625 -2.2734375 5.9453125 C-3.47426834 4.5923402 -4.7208345 3.2791655 -6 2 C-5.38125 1.855625 -4.7625 1.71125 -4.125 1.5625 C-1.96741678 1.06847775 -1.96741678 1.06847775 0 0 Z " fill="#D8D3D7" transform="translate(194,225)"/>
<path d="M0 0 C0.66 0 1.32 0 2 0 C2 0.99 2 1.98 2 3 C2.66 3.33 3.32 3.66 4 4 C3.34 5.32 2.68 6.64 2 8 C1.34 8 0.68 8 0 8 C-0.33 8.66 -0.66 9.32 -1 10 C-1.66 10 -2.32 10 -3 10 C-3.75 8.375 -3.75 8.375 -4 6 C-2.1875 2.75 -2.1875 2.75 0 0 Z " fill="#EDEDF2" transform="translate(267,237)"/>
<path d="M0 0 C-3.12432397 2.52349243 -6.38060496 4.27256146 -10 6 C-10 5.34 -10 4.68 -10 4 C-10.99 4 -11.98 4 -13 4 C-12.67 3.01 -12.34 2.02 -12 1 C-11.01 1.33 -10.02 1.66 -9 2 C-8.67 1.34 -8.34 0.68 -8 0 C-4.71023192 -1.09658936 -3.28696233 -0.79953138 0 0 Z " fill="#50464E" transform="translate(297,298)"/>
<path d="M0 0 C0.66 0 1.32 0 2 0 C4.03684712 4.07369424 4.0257259 6.58937864 3 11 C2.01 11.33 1.02 11.66 0 12 C0 8.04 0 4.08 0 0 Z " fill="#4F4B54" transform="translate(200,277)"/>
<path d="M0 0 C1.02971945 4.1188778 0.81926586 6.15456121 0.0625 10.25 C-0.13214844 11.32765625 -0.32679688 12.4053125 -0.52734375 13.515625 C-0.76130859 14.74539062 -0.76130859 14.74539062 -1 16 C-2.32 15.34 -3.64 14.68 -5 14 C-3.35 9.38 -1.7 4.76 0 0 Z " fill="#D1CCD5" transform="translate(292,197)"/>
<path d="M0 0 C1.32 0.66 2.64 1.32 4 2 C4 3.32 4 4.64 4 6 C3.01 6.66 2.02 7.32 1 8 C0.01 7.01 -0.98 6.02 -2 5 C-1.34 3.35 -0.68 1.7 0 0 Z " fill="#5D5256" transform="translate(329,158)"/>
<path d="M0 0 C1.65 0.33 3.3 0.66 5 1 C5 2.65 5 4.3 5 6 C3.35 6.33 1.7 6.66 0 7 C-1.125 2.25 -1.125 2.25 0 0 Z " fill="#524A50" transform="translate(141,149)"/>
<path d="M0 0 C0.66 0.33 1.32 0.66 2 1 C0.7934375 2.36125 0.7934375 2.36125 -0.4375 3.75 C-2.41142671 6.10309908 -3.63877467 7.86938046 -4 11 C-5.98 11.33 -7.96 11.66 -10 12 C-9.67 11.01 -9.34 10.02 -9 9 C-8.34 9 -7.68 9 -7 9 C-6.731875 8.401875 -6.46375 7.80375 -6.1875 7.1875 C-5.00082594 5.00152146 -3.90400887 3.58667406 -2 2 C-1.34 2 -0.68 2 0 2 C0 1.34 0 0.68 0 0 Z " fill="#665D64" transform="translate(179,134)"/>
<path d="M0 0 C0.33 0.66 0.66 1.32 1 2 C1.99 2.33 2.98 2.66 4 3 C0.92000054 6.67230705 -1.2482602 7.56802365 -6 8 C-6 7.34 -6 6.68 -6 6 C-5.38125 5.938125 -4.7625 5.87625 -4.125 5.8125 C-1.72238859 5.171081 -1.72238859 5.171081 -0.75 2.4375 C-0.5025 1.633125 -0.255 0.82875 0 0 Z " fill="#4F4250" transform="translate(325,281)"/>
<path d="M0 0 C0.33 0.66 0.66 1.32 1 2 C1.66 2 2.32 2 3 2 C2.67 2.66 2.34 3.32 2 4 C1.7677354 6.71262116 1.58063765 9.40773126 1.4375 12.125 C1.39431641 12.87910156 1.35113281 13.63320313 1.30664062 14.41015625 C1.2005168 16.27321888 1.09974999 18.13658524 1 20 C0.67 20 0.34 20 0 20 C-0.03738281 19.04738281 -0.07476562 18.09476562 -0.11328125 17.11328125 C-0.17902344 15.85902344 -0.24476563 14.60476563 -0.3125 13.3125 C-0.37050781 12.07113281 -0.42851562 10.82976562 -0.48828125 9.55078125 C-1.00910976 5.93678801 -1.90154617 3.94233607 -4 1 C-2.68 0.67 -1.36 0.34 0 0 Z " fill="#736771" transform="translate(171,273)"/>
<path d="M0 0 C1.67542976 0.28604898 3.34385343 0.61781233 5 1 C4.67 2.65 4.34 4.3 4 6 C2.68 6 1.36 6 0 6 C-0.38218767 4.34385343 -0.71395102 2.67542976 -1 1 C-0.67 0.67 -0.34 0.34 0 0 Z " fill="#514551" transform="translate(131,169)"/>
<path d="M0 0 C2.0625 0.4375 2.0625 0.4375 4 1 C5.125 4.75 5.125 4.75 4 7 C2.35 6.67 0.7 6.34 -1 6 C-1.042721 4.33388095 -1.04063832 2.66617115 -1 1 C-0.67 0.67 -0.34 0.34 0 0 Z " fill="#5A5055" transform="translate(129,158)"/>
<path d="M0 0 C1.65 0 3.3 0 5 0 C5.33 0.99 5.66 1.98 6 3 C2.6659053 5.19097652 -0.04179141 6.43454163 -4 7 C-4 6.34 -4 5.68 -4 5 C-3.34 5 -2.68 5 -2 5 C-1.34 3.35 -0.68 1.7 0 0 Z " fill="#433840" transform="translate(168,146)"/>
<path d="M0 0 C1.65 0.33 3.3 0.66 5 1 C4.67 2.65 4.34 4.3 4 6 C2.35 5.67 0.7 5.34 -1 5 C-0.67 3.35 -0.34 1.7 0 0 Z " fill="#695F63" transform="translate(288,117)"/>
<path d="M0 0 C1.32 0.33 2.64 0.66 4 1 C2.25 5.875 2.25 5.875 0 7 C-1.32 6.01 -2.64 5.02 -4 4 C-3.67 3.34 -3.34 2.68 -3 2 C-2.67 2.33 -2.34 2.66 -2 3 C-1.34 2.01 -0.68 1.02 0 0 Z " fill="#2E282F" transform="translate(240,347)"/>
<path d="M0 0 C1.98 0.66 3.96 1.32 6 2 C5.34 2.66 4.68 3.32 4 4 C3.34 3.67 2.68 3.34 2 3 C2 8.28 2 13.56 2 19 C1.67 19 1.34 19 1 19 C0.93941406 17.95199219 0.87882813 16.90398437 0.81640625 15.82421875 C0.73198262 14.44529952 0.64733553 13.06639395 0.5625 11.6875 C0.52318359 10.99720703 0.48386719 10.30691406 0.44335938 9.59570312 C0.25072585 6.52838465 -0.02322717 3.93031848 -1 1 C-0.67 0.67 -0.34 0.34 0 0 Z " fill="#957F8E" transform="translate(178,288)"/>
<path d="M0 0 C1.98 0.495 1.98 0.495 4 1 C4.33 2.65 4.66 4.3 5 6 C3.35 6 1.7 6 0 6 C-1.125 2.25 -1.125 2.25 0 0 Z " fill="#665C63" transform="translate(141,244)"/>
<path d="M0 0 C0.66 0.33 1.32 0.66 2 1 C1.52949219 1.38671875 1.05898437 1.7734375 0.57421875 2.171875 C-2.6817612 4.89530336 -5.65453533 7.41281874 -8 11 C-8.99 10.34 -9.98 9.68 -11 9 C-9.54405245 7.68485396 -8.08516421 6.37296283 -6.625 5.0625 C-5.81289062 4.33160156 -5.00078125 3.60070312 -4.1640625 2.84765625 C-2 1 -2 1 0 0 Z " fill="#D4CED6" transform="translate(189,142)"/>
<path d="M0 0 C1.4540625 0.0309375 1.4540625 0.0309375 2.9375 0.0625 C2.31875 0.124375 1.7 0.18625 1.0625 0.25 C-1.34011141 0.891419 -1.34011141 0.891419 -2.3125 3.625 C-2.56 4.429375 -2.8075 5.23375 -3.0625 6.0625 C-2.0725 6.0625 -1.0825 6.0625 -0.0625 6.0625 C-0.3925 7.0525 -0.7225 8.0425 -1.0625 9.0625 C-2.3825 8.0725 -3.7025 7.0825 -5.0625 6.0625 C-3.98897059 0.08140756 -3.98897059 0.08140756 0 0 Z " fill="#5F545D" transform="translate(310.0625,114.9375)"/>
<path d="M0 0 C0.33 0 0.66 0 1 0 C1.06058594 1.09699219 1.12117187 2.19398438 1.18359375 3.32421875 C1.26804498 4.77865654 1.35269066 6.23308305 1.4375 7.6875 C1.47681641 8.40873047 1.51613281 9.12996094 1.55664062 9.87304688 C1.78185678 13.66707282 2.12839305 17.28651492 3 21 C2.01 20.67 1.02 20.34 0 20 C0 13.4 0 6.8 0 0 Z " fill="#190F1B" transform="translate(183,344)"/>
<path d="M0 0 C0.66 0.99 1.32 1.98 2 3 C0 6 0 6 -2.125 6.6875 C-2.74375 6.790625 -3.3625 6.89375 -4 7 C-4.33 5.35 -4.66 3.7 -5 2 C-3.35 1.34 -1.7 0.68 0 0 Z " fill="#312931" transform="translate(226,350)"/>
<path d="M0 0 C-0.66 1.32 -1.32 2.64 -2 4 C-2.99 4 -3.98 4 -5 4 C-5 4.66 -5 5.32 -5 6 C-5.66 6 -6.32 6 -7 6 C-7 4.35 -7 2.7 -7 1 C-4.53721199 -0.231394 -2.7204945 -0.07159196 0 0 Z " fill="#3A303A" transform="translate(287,302)"/>
<path d="M0 0 C0.66 0.66 1.32 1.32 2 2 C1.9765625 4.1640625 1.9765625 4.1640625 1.625 6.625 C1.51414063 7.44226563 1.40328125 8.25953125 1.2890625 9.1015625 C1.19367188 9.72804688 1.09828125 10.35453125 1 11 C0.360625 11.12375 -0.27875 11.2475 -0.9375 11.375 C-1.618125 11.58125 -2.29875 11.7875 -3 12 C-3.33 12.66 -3.66 13.32 -4 14 C-4.33 13.01 -4.66 12.02 -5 11 C-4.34 11 -3.68 11 -3 11 C-3 10.01 -3 9.02 -3 8 C-2.34 8 -1.68 8 -1 8 C-0.67 5.36 -0.34 2.72 0 0 Z " fill="#D7D3D8" transform="translate(188,250)"/>
<path d="M0 0 C2.26954631 3.40431947 2.36549949 5.16524202 2.625 9.1875 C2.69976562 10.27417969 2.77453125 11.36085938 2.8515625 12.48046875 C2.90054688 13.31191406 2.94953125 14.14335937 3 15 C2.34 15 1.68 15 1 15 C0.8046875 13.01432292 0.609375 11.02864583 0.4140625 9.04296875 C0.07334609 6.70011858 0.07334609 6.70011858 -2 4 C-1.34 2.68 -0.68 1.36 0 0 Z " fill="#DFDDE3" transform="translate(243,245)"/>
<path d="M0 0 C0.33 0 0.66 0 1 0 C1.33 1.98 1.66 3.96 2 6 C2.99 5.67 3.98 5.34 5 5 C5 4.34 5 3.68 5 3 C5.66 3 6.32 3 7 3 C7 3.99 7 4.98 7 6 C4.46815512 8.35723489 3.52809907 9 0 9 C-0.87890625 2.84765625 -0.87890625 2.84765625 -1 1 C-0.67 0.67 -0.34 0.34 0 0 Z " fill="#C4C2C5" transform="translate(271,230)"/>
<path d="M0 0 C1.65 0 3.3 0 5 0 C5.33 1.32 5.66 2.64 6 4 C4.35 4.33 2.7 4.66 1 5 C0.67 3.35 0.34 1.7 0 0 Z " fill="#595259" transform="translate(334,194)"/>
<path d="M0 0 C0 1.32 0 2.64 0 4 C-0.66 4 -1.32 4 -2 4 C-2.33 4.66 -2.66 5.32 -3 6 C-3 4.68 -3 3.36 -3 2 C-3.66 2 -4.32 2 -5 2 C-5.33 2.66 -5.66 3.32 -6 4 C-6 3.34 -6 2.68 -6 2 C-6.66 1.67 -7.32 1.34 -8 1 C-4.93251126 -0.86240388 -3.40254489 -1.2151946 0 0 Z " fill="#625B61" transform="translate(338,183)"/>
<path d="M0 0 C0.99 0.33 1.98 0.66 3 1 C3.6875 3.0625 3.6875 3.0625 4 5 C0.25 6.125 0.25 6.125 -2 5 C-2 3.68 -2 2.36 -2 1 C-1.34 0.67 -0.68 0.34 0 0 Z " fill="#4F474D" transform="translate(166,290)"/>
<path d="M0 0 C1.5625 1.125 1.5625 1.125 3 3 C2.6875 6.1875 2.6875 6.1875 2 9 C1.67 9 1.34 9 1 9 C0.67 10.65 0.34 12.3 0 14 C-0.33 14 -0.66 14 -1 14 C-1.08333357 9.1666528 -0.95261487 4.76307437 0 0 Z " fill="#494248" transform="translate(213,283)"/>
<path d="M0 0 C1.32 0 2.64 0 4 0 C3.67 1.32 3.34 2.64 3 4 C2.67 3.34 2.34 2.68 2 2 C1.67 4.64 1.34 7.28 1 10 C-0.37562854 8.71034824 -1.70766393 7.37310707 -3 6 C-3 5.34 -3 4.68 -3 4 C-2.34 4 -1.68 4 -1 4 C-0.67 2.68 -0.34 1.36 0 0 Z " fill="#3B363E" transform="translate(187,249)"/>
<path d="M0 0 C0.66 0.33 1.32 0.66 2 1 C2 2.65 2 4.3 2 6 C0.68 6 -0.64 6 -2 6 C-2.33 4.68 -2.66 3.36 -3 2 C-2.01 1.34 -1.02 0.68 0 0 Z " fill="#463E43" transform="translate(138,180)"/>
<path d="M0 0 C0.33 0 0.66 0 1 0 C1.33 1.98 1.66 3.96 2 6 C1.34 6 0.68 6 0 6 C0 6.99 0 7.98 0 9 C-1.98 9.33 -3.96 9.66 -6 10 C-6.66 8.02 -7.32 6.04 -8 4 C-7.3503125 4.7425 -7.3503125 4.7425 -6.6875 5.5 C-5.00259517 7.33218192 -5.00259517 7.33218192 -2 7 C-1.34 4.69 -0.68 2.38 0 0 Z " fill="#70646C" transform="translate(156,167)"/>
<path d="M0 0 C0.12375 0.61875 0.2475 1.2375 0.375 1.875 C0.87197356 4.19120832 0.87197356 4.19120832 3 6 C0.6875 7.125 0.6875 7.125 -2 8 C-2.99 7.34 -3.98 6.68 -5 6 C-3.35 4.02 -1.7 2.04 0 0 Z " fill="#594F59" transform="translate(260,287)"/>
<path d="M0 0 C0.144375 0.61875 0.28875 1.2375 0.4375 1.875 C1.18475714 4.69797142 1.90847581 5.90847581 4 8 C3.67 8.99 3.34 9.98 3 11 C1.68 11 0.36 11 -1 11 C-1.125 3.375 -1.125 3.375 0 0 Z " fill="#605965" transform="translate(210,368)"/>
<path d="M0 0 C3.6875 0.875 3.6875 0.875 7 2 C5.25 3.5625 5.25 3.5625 3 5 C-0.00388632 4.73495121 -0.83304275 4.16695725 -3 2 C-2.01 1.34 -1.02 0.68 0 0 Z " fill="#50454D" transform="translate(215,313)"/>
<path d="M0 0 C1.10844919 3.32534757 0.84454356 5.62182575 0 9 C-0.66 9 -1.32 9 -2 9 C-2.66 7.35 -3.32 5.7 -4 4 C-2.68 2.68 -1.36 1.36 0 0 Z " fill="#4C4955" transform="translate(211,261)"/>
<path d="M0 0 C2.0625 1.75 2.0625 1.75 4 4 C3.75 6.25 3.75 6.25 3 8 C2.01 8 1.02 8 0 8 C0 5.36 0 2.72 0 0 Z " fill="#C4BFC9" transform="translate(189,203)"/>
<path d="M0 0 C-0.375 2.4375 -0.375 2.4375 -1 5 C-1.99 5.495 -1.99 5.495 -3 6 C-3.66 5.34 -4.32 4.68 -5 4 C-5.66 3.67 -6.32 3.34 -7 3 C-3.375 0 -3.375 0 0 0 Z " fill="#6C556D" transform="translate(357,214)"/>
<path d="M0 0 C0.33 0 0.66 0 1 0 C1 1.98 1 3.96 1 6 C-0.32 6.33 -1.64 6.66 -3 7 C-3 6.34 -3 5.68 -3 5 C-3.66 4.67 -4.32 4.34 -5 4 C-5 3.34 -5 2.68 -5 2 C-3.68 2.33 -2.36 2.66 -1 3 C-0.67 2.01 -0.34 1.02 0 0 Z " fill="#201822" transform="translate(356,186)"/>
<path d="M0 0 C0.66 0.99 1.32 1.98 2 3 C1.38125 3.4125 0.7625 3.825 0.125 4.25 C-2.06768281 6.05573879 -2.92788417 7.4090534 -4 10 C-4.99 9.67 -5.98 9.34 -7 9 C-4.69 6.03 -2.38 3.06 0 0 Z " fill="#675B63" transform="translate(244,306)"/>
<path d="M0 0 C0.66 0 1.32 0 2 0 C2.99 2.31 3.98 4.62 5 7 C3.68 7.33 2.36 7.66 1 8 C0.67 5.36 0.34 2.72 0 0 Z " fill="#BDB5BF" transform="translate(173,237)"/>
<path d="M0 0 C0.33 0 0.66 0 1 0 C1.05389087 1.95803507 1.09274217 3.91648909 1.125 5.875 C1.14820313 6.96554688 1.17140625 8.05609375 1.1953125 9.1796875 C1 12 1 12 -1 14 C-1.33 13.01 -1.66 12.02 -2 11 C-1.67 10.67 -1.34 10.34 -1 10 C-1.66 9.67 -2.32 9.34 -3 9 C-2.67 8.34 -2.34 7.68 -2 7 C-1.67 7 -1.34 7 -1 7 C-0.67 4.69 -0.34 2.38 0 0 Z " fill="#332E39" transform="translate(214,210)"/>
<path d="M0 0 C0.68707555 2.49064888 1 4.37886292 1 7 C0.34 7.66 -0.32 8.32 -1 9 C-1.99 9 -2.98 9 -4 9 C-2.80100302 5.9168649 -1.52299523 2.93720508 0 0 Z " fill="#3F343E" transform="translate(151,205)"/>
<path d="M0 0 C2.125 0.375 2.125 0.375 4 1 C1.64722731 3.72426311 -0.62496331 4.8141763 -4 6 C-2.84826645 3.53199953 -1.95216435 1.95216435 0 0 Z " fill="#E3E0E7" transform="translate(243,192)"/>
<path d="M0 0 C0 2.31 0 4.62 0 7 C-1.65 6.67 -3.3 6.34 -5 6 C-4.67 4.35 -4.34 2.7 -4 1 C-1 0 -1 0 0 0 Z " fill="#3A2E3B" transform="translate(148,166)"/>
<path d="M0 0 C2.475 0.495 2.475 0.495 5 1 C4.67 2.32 4.34 3.64 4 5 C2.68 5 1.36 5 0 5 C0 3.35 0 1.7 0 0 Z " fill="#625D5F" transform="translate(315,143)"/>
<path d="M0 0 C1.32 1.65 2.64 3.3 4 5 C3.01 5.495 3.01 5.495 2 6 C-0.625 4.6875 -0.625 4.6875 -3 3 C-3 2.34 -3 1.68 -3 1 C-2.01 0.67 -1.02 0.34 0 0 Z " fill="#312631" transform="translate(174,224)"/>
<path d="M0 0 C1.32 0.33 2.64 0.66 4 1 C4 2.32 4 3.64 4 5 C2.68 5 1.36 5 0 5 C0 3.35 0 1.7 0 0 Z " fill="#6A5D60" transform="translate(141,201)"/>
<path d="M0 0 C2.475 0.99 2.475 0.99 5 2 C5 2.99 5 3.98 5 5 C4.01 5.495 4.01 5.495 3 6 C2.01 5.34 1.02 4.68 0 4 C0 2.68 0 1.36 0 0 Z " fill="#574D56" transform="translate(248,174)"/>
<path d="M0 0 C0.66 0.33 1.32 0.66 2 1 C2.33 1.99 2.66 2.98 3 4 C1.66666667 5.33333333 0.33333333 6.66666667 -1 8 C-1.66 7.34 -2.32 6.68 -3 6 C-2.01 4.02 -1.02 2.04 0 0 Z " fill="#1D151E" transform="translate(228,332)"/>
<path d="M0 0 C1.98 0 3.96 0 6 0 C1.375 4 1.375 4 -2 4 C-1.34 2.68 -0.68 1.36 0 0 Z " fill="#564851" transform="translate(250,286)"/>
<path d="M0 0 C-0.66 2.64 -1.32 5.28 -2 8 C-4.35953094 5.64046906 -4.49141413 4.22104383 -5 1 C-2 0 -2 0 0 0 Z " fill="#3F4049" transform="translate(224,259)"/>
<path d="M0 0 C1.89213369 2.38573379 3.02391783 4.07175348 4 7 C3.34 7 2.68 7 2 7 C1.67 7.99 1.34 8.98 1 10 C-0.60725635 6.78548731 -0.05748185 3.56387464 0 0 Z " fill="#DCDADC" transform="translate(191,254)"/>
<path d="M0 0 C1.32 1.32 2.64 2.64 4 4 C3.34 5.65 2.68 7.3 2 9 C1.34 9 0.68 9 0 9 C0 6.03 0 3.06 0 0 Z " fill="#565357" transform="translate(231,253)"/>
<path d="M0 0 C1.32 0.33 2.64 0.66 4 1 C3.01 3.64 2.02 6.28 1 9 C0.67 8.01 0.34 7.02 0 6 C-0.66 5.67 -1.32 5.34 -2 5 C-1.34 4.34 -0.68 3.68 0 3 C0 2.01 0 1.02 0 0 Z " fill="#705D6D" transform="translate(325,197)"/>
<path d="M0 0 C4.43458973 1.3937282 6.87378374 3.60582235 10 7 C8.35 6.67 6.7 6.34 5 6 C5 5.34 5 4.68 5 4 C4.360625 3.896875 3.72125 3.79375 3.0625 3.6875 C2.381875 3.460625 1.70125 3.23375 1 3 C0.67 2.01 0.34 1.02 0 0 Z " fill="#5B5359" transform="translate(277,123)"/>
<path d="M0 0 C0 1.65 0 3.3 0 5 C-1.98 4.34 -3.96 3.68 -6 3 C-6 2.34 -6 1.68 -6 1 C-3.92446352 0.4465236 -2.15634036 0 0 0 Z " fill="#241B23" transform="translate(290,326)"/>
<path d="M0 0 C0.66 0 1.32 0 2 0 C2 1.65 2 3.3 2 5 C0.35 5.66 -1.3 6.32 -3 7 C-3 6.01 -3 5.02 -3 4 C-2.01 4 -1.02 4 0 4 C0 2.68 0 1.36 0 0 Z " fill="#5D4F5C" transform="translate(277,326)"/>
<path d="M0 0 C1.98 0 3.96 0 6 0 C5.67 1.32 5.34 2.64 5 4 C3.35 3.67 1.7 3.34 0 3 C0 2.01 0 1.02 0 0 Z " fill="#4A4045" transform="translate(297,313)"/>
<path d="M0 0 C3.875 1.875 3.875 1.875 5 3 C5.04080783 4.99958364 5.04254356 7.00045254 5 9 C2.67527795 6.14693203 1.2491742 3.45925163 0 0 Z " fill="#D1CDD1" transform="translate(207,290)"/>
<path d="M0 0 C2 1.375 2 1.375 4 3 C4 3.66 4 4.32 4 5 C2.35 5.33 0.7 5.66 -1 6 C-1.042721 4.33388095 -1.04063832 2.66617115 -1 1 C-0.67 0.67 -0.34 0.34 0 0 Z M2 0 C4 1 4 1 4 1 Z " fill="#302735" transform="translate(248,273)"/>
<path d="M0 0 C-0.33 1.65 -0.66 3.3 -1 5 C-3.475 4.01 -3.475 4.01 -6 3 C-2.25 0 -2.25 0 0 0 Z " fill="#443B45" transform="translate(321,273)"/>
<path d="M0 0 C0.66 0.33 1.32 0.66 2 1 C1.67 2.65 1.34 4.3 1 6 C-0.65 6.33 -2.3 6.66 -4 7 C-3.34 6.67 -2.68 6.34 -2 6 C-1.27306096 4.02111039 -0.60183749 2.02045442 0 0 Z " fill="#665A63" transform="translate(340,267)"/>
<path d="M0 0 C0.66 0 1.32 0 2 0 C2.33 1.65 2.66 3.3 3 5 C1.35 5.66 -0.3 6.32 -2 7 C-1.34 4.69 -0.68 2.38 0 0 Z " fill="#D3CBD7" transform="translate(215,254)"/>
<path d="M0 0 C0.66 0.66 1.32 1.32 2 2 C1.625 4.625 1.625 4.625 1 7 C0.34 7 -0.32 7 -1 7 C-1.625 4.625 -1.625 4.625 -2 2 C-1.34 1.34 -0.68 0.68 0 0 Z " fill="#E6DFE7" transform="translate(229,251)"/>
<path d="M0 0 C0.99 0 1.98 0 3 0 C2.6875 2.375 2.6875 2.375 2 5 C1.01 5.66 0.02 6.32 -1 7 C-0.67 4.69 -0.34 2.38 0 0 Z " fill="#E0E0E6" transform="translate(213,224)"/>
<path d="M0 0 C0.99 0.33 1.98 0.66 3 1 C2.34 3.31 1.68 5.62 1 8 C0.67 8 0.34 8 0 8 C-0.38063221 5.6739143 -0.71269945 3.33944736 -1 1 C-0.67 0.67 -0.34 0.34 0 0 Z " fill="#423C42" transform="translate(357,182)"/>
<path d="M0 0 C0 0.66 0 1.32 0 2 C-1.96466413 3.06775224 -3.96855359 4.06553465 -6 5 C-6.66 4.67 -7.32 4.34 -8 4 C-5.52914451 0.29371676 -4.37054922 0 0 0 Z " fill="#5E555D" transform="translate(323,129)"/>
<path d="M0 0 C1.65 0 3.3 0 5 0 C5.33 0.66 5.66 1.32 6 2 C5.34 2 4.68 2 4 2 C3.67 3.32 3.34 4.64 3 6 C2.01 5.67 1.02 5.34 0 5 C0.33 4.01 0.66 3.02 1 2 C0.67 1.34 0.34 0.68 0 0 Z " fill="#211521" transform="translate(312,128)"/>
<path d="M0 0 C0.99 0.33 1.98 0.66 3 1 C1.72485508 3.55028983 0.59658703 3.93081711 -2 5 C-2.99 5 -3.98 5 -5 5 C-3.35 3.35 -1.7 1.7 0 0 Z " fill="#211823" transform="translate(237,320)"/>
<path d="M0 0 C1.98 0.495 1.98 0.495 4 1 C4 1.99 4 2.98 4 4 C3.34 4 2.68 4 2 4 C2 4.66 2 5.32 2 6 C1.34 6 0.68 6 0 6 C-1.125 2.25 -1.125 2.25 0 0 Z " fill="#221920" transform="translate(336,267)"/>
<path d="M0 0 C0.33 0 0.66 0 1 0 C1.33 3.63 1.66 7.26 2 11 C1.34 11 0.68 11 0 11 C-0.66 9.02 -1.32 7.04 -2 5 C-1.34 5 -0.68 5 0 5 C0 3.35 0 1.7 0 0 Z " fill="#413E3F" transform="translate(198,256)"/>
<path d="M0 0 C1.32 0.66 2.64 1.32 4 2 C2.35 3.65 0.7 5.3 -1 7 C-1.625 5.1875 -1.625 5.1875 -2 3 C-1.34 2.01 -0.68 1.02 0 0 Z " fill="#57444D" transform="translate(334,234)"/>
<path d="M0 0 C2.25 0.25 2.25 0.25 4 1 C3.01 1.495 3.01 1.495 2 2 C1.01 3.485 1.01 3.485 0 5 C-1.32 4.67 -2.64 4.34 -4 4 C-2.25 1.9375 -2.25 1.9375 0 0 Z " fill="#555156" transform="translate(238,346)"/>
<path d="M0 0 C0.99 0 1.98 0 3 0 C3.33 1.65 3.66 3.3 4 5 C2.35 4.67 0.7 4.34 -1 4 C-0.67 2.68 -0.34 1.36 0 0 Z " fill="#1C151D" transform="translate(255,342)"/>
<path d="M0 0 C0.33 0.99 0.66 1.98 1 3 C-0.65 4.32 -2.3 5.64 -4 7 C-3.6875 4.625 -3.6875 4.625 -3 2 C-2.01 1.34 -1.02 0.68 0 0 Z " fill="#D8D4D7" transform="translate(279,296)"/>
<path d="M0 0 C1.98 0.66 3.96 1.32 6 2 C4.1875 3.0625 4.1875 3.0625 2 4 C1.01 3.67 0.02 3.34 -1 3 C-0.67 2.01 -0.34 1.02 0 0 Z M6 1 C8 2 8 2 8 2 Z " fill="#211722" transform="translate(314,276)"/>
<path d="M0 0 C2.475 0.495 2.475 0.495 5 1 C5.33 2.32 5.66 3.64 6 5 C2.83884224 3.63016497 2.0072908 3.0109362 0 0 Z " fill="#49404B" transform="translate(139,258)"/>
<path d="M0 0 C0.66 0 1.32 0 2 0 C2.33 2.31 2.66 4.62 3 7 C2.01 7 1.02 7 0 7 C-1.125 2.25 -1.125 2.25 0 0 Z " fill="#E4E2E5" transform="translate(269,233)"/>
<path d="M0 0 C1.4540625 0.0309375 1.4540625 0.0309375 2.9375 0.0625 C3.2675 1.0525 3.5975 2.0425 3.9375 3.0625 C1.0625 3.1875 1.0625 3.1875 -2.0625 3.0625 C-2.7225 2.4025 -3.3825 1.7425 -4.0625 1.0625 C-3.0625 0.0625 -3.0625 0.0625 0 0 Z " fill="#534351" transform="translate(134.0625,211.9375)"/>
<path d="M0 0 C0.66 1.32 1.32 2.64 2 4 C1.34 4.99 0.68 5.98 0 7 C0.66 7.33 1.32 7.66 2 8 C1.01 8.33 0.02 8.66 -1 9 C-1.09765625 2.84765625 -1.09765625 2.84765625 -1 1 C-0.67 0.67 -0.34 0.34 0 0 Z " fill="#211C22" transform="translate(223,200)"/>
<path d="M0 0 C0.33 0 0.66 0 1 0 C1.33 2.64 1.66 5.28 2 8 C0.02 8.99 0.02 8.99 -2 10 C-1.34 6.7 -0.68 3.4 0 0 Z " fill="#504951" transform="translate(282,185)"/>
<path d="M0 0 C2.625 0.9375 2.625 0.9375 5 2 C4.67 2.99 4.34 3.98 4 5 C4 4.34 4 3.68 4 3 C2.02 3 0.04 3 -2 3 C-2 2.34 -2 1.68 -2 1 C-1.34 0.67 -0.68 0.34 0 0 Z " fill="#211723" transform="translate(327,187)"/>
<path d="M0 0 C0.99 0.33 1.98 0.66 3 1 C1.25 4.875 1.25 4.875 -1 6 C-1.33 5.01 -1.66 4.02 -2 3 C-1.34 2.01 -0.68 1.02 0 0 Z " fill="#443B42" transform="translate(331,160)"/>
<path d="M0 0 C0.99 0.33 1.98 0.66 3 1 C2.67 1.99 2.34 2.98 2 4 C1.01 3.67 0.02 3.34 -1 3 C-0.67 2.01 -0.34 1.02 0 0 Z " fill="#5B5256" transform="translate(143,193)"/>
<path d="M0 0 C0.99 0 1.98 0 3 0 C2.67 0.99 2.34 1.98 2 3 C1.01 3 0.02 3 -1 3 C-0.67 2.01 -0.34 1.02 0 0 Z " fill="#605759" transform="translate(213,340)"/>
<path d="M0 0 C0.66 0.33 1.32 0.66 2 1 C2 1.66 2 2.32 2 3 C1.01 3 0.02 3 -1 3 C-0.67 2.01 -0.34 1.02 0 0 Z " fill="#A49394" transform="translate(346,117)"/>
</svg>
